<mxfile host="app.diagrams.net" agent="Mozilla/5.0 (Windows NT 10.0; Win64; x64) AppleWebKit/537.36 (KHTML, like Gecko) Chrome/132.0.0.0 Safari/537.36" version="26.0.11">
  <diagram name="Page-1" id="2YBvvXClWsGukQMizWep">
    <mxGraphModel grid="1" page="1" gridSize="10" guides="1" tooltips="1" connect="1" arrows="1" fold="1" pageScale="1" pageWidth="827" pageHeight="1169" math="0" shadow="0">
      <root>
        <mxCell id="0" />
        <mxCell id="1" parent="0" />
        <mxCell id="KFQoRSMoKo6lWCKC4XPC-30" value="&lt;font style=&quot;color: light-dark(rgb(0, 0, 0), rgb(255, 128, 0));&quot;&gt;l:GUI&lt;br&gt;Operatore x lavorazione&lt;/font&gt;" style="shape=umlLifeline;perimeter=lifelinePerimeter;whiteSpace=wrap;html=1;container=0;dropTarget=0;collapsible=0;recursiveResize=0;outlineConnect=0;portConstraint=eastwest;newEdgeStyle={&quot;edgeStyle&quot;:&quot;elbowEdgeStyle&quot;,&quot;elbow&quot;:&quot;vertical&quot;,&quot;curved&quot;:0,&quot;rounded&quot;:0};fontColor=light-dark(#000000,#FFFFFF);" vertex="1" parent="1">
          <mxGeometry x="800" y="390" width="100" height="540" as="geometry" />
        </mxCell>
        <mxCell id="KFQoRSMoKo6lWCKC4XPC-31" value="" style="html=1;points=[];perimeter=orthogonalPerimeter;outlineConnect=0;targetShapes=umlLifeline;portConstraint=eastwest;newEdgeStyle={&quot;edgeStyle&quot;:&quot;elbowEdgeStyle&quot;,&quot;elbow&quot;:&quot;vertical&quot;,&quot;curved&quot;:0,&quot;rounded&quot;:0};fontColor=light-dark(#000000,#FFFFFF);" vertex="1" parent="KFQoRSMoKo6lWCKC4XPC-30">
          <mxGeometry x="45" y="70" width="10" height="460" as="geometry" />
        </mxCell>
        <mxCell id="KFQoRSMoKo6lWCKC4XPC-34" value="&lt;font style=&quot;color: light-dark(rgb(0, 0, 0), rgb(255, 0, 0));&quot;&gt;c : CatenaLavorazione&lt;/font&gt;" style="shape=umlLifeline;perimeter=lifelinePerimeter;whiteSpace=wrap;html=1;container=0;dropTarget=0;collapsible=0;recursiveResize=0;outlineConnect=0;portConstraint=eastwest;newEdgeStyle={&quot;edgeStyle&quot;:&quot;elbowEdgeStyle&quot;,&quot;elbow&quot;:&quot;vertical&quot;,&quot;curved&quot;:0,&quot;rounded&quot;:0};fontColor=light-dark(#000000,#FFFFFF);" vertex="1" parent="1">
          <mxGeometry x="1100" y="390" width="100" height="530" as="geometry" />
        </mxCell>
        <mxCell id="KFQoRSMoKo6lWCKC4XPC-35" value="" style="html=1;points=[];perimeter=orthogonalPerimeter;outlineConnect=0;targetShapes=umlLifeline;portConstraint=eastwest;newEdgeStyle={&quot;edgeStyle&quot;:&quot;elbowEdgeStyle&quot;,&quot;elbow&quot;:&quot;vertical&quot;,&quot;curved&quot;:0,&quot;rounded&quot;:0};fontColor=light-dark(#000000,#FFFFFF);" vertex="1" parent="KFQoRSMoKo6lWCKC4XPC-34">
          <mxGeometry x="45" y="160" width="10" height="350" as="geometry" />
        </mxCell>
        <mxCell id="HvNu41siJUzFplcwvGJl-1" value="" style="endArrow=classic;html=1;rounded=0;fontColor=light-dark(#000000,#FFFFFF);" edge="1" parent="KFQoRSMoKo6lWCKC4XPC-34">
          <mxGeometry width="50" height="50" relative="1" as="geometry">
            <mxPoint x="55" y="270.0000000000001" as="sourcePoint" />
            <mxPoint x="55" y="280.0000000000001" as="targetPoint" />
            <Array as="points">
              <mxPoint x="80" y="270" />
              <mxPoint x="80" y="280" />
            </Array>
          </mxGeometry>
        </mxCell>
        <mxCell id="HvNu41siJUzFplcwvGJl-2" value="moveToNextStazione()" style="edgeLabel;html=1;align=center;verticalAlign=middle;resizable=0;points=[];fontColor=light-dark(#000000,#FFFFFF);" connectable="0" vertex="1" parent="HvNu41siJUzFplcwvGJl-1">
          <mxGeometry x="-0.0071" y="-1" relative="1" as="geometry">
            <mxPoint x="57" as="offset" />
          </mxGeometry>
        </mxCell>
        <mxCell id="KFQoRSMoKo6lWCKC4XPC-37" value="return fine lavorazione" style="html=1;verticalAlign=bottom;endArrow=open;dashed=1;endSize=8;edgeStyle=elbowEdgeStyle;elbow=vertical;curved=0;rounded=0;fontColor=light-dark(#000000,#FFFFFF);" edge="1" parent="1" source="KFQoRSMoKo6lWCKC4XPC-54" target="KFQoRSMoKo6lWCKC4XPC-35">
          <mxGeometry relative="1" as="geometry">
            <mxPoint x="1210" y="870" as="targetPoint" />
            <Array as="points">
              <mxPoint x="1280" y="870" />
              <mxPoint x="950" y="850" />
              <mxPoint x="1072" y="770" />
            </Array>
            <mxPoint x="1140" y="770" as="sourcePoint" />
            <mxPoint as="offset" />
          </mxGeometry>
        </mxCell>
        <mxCell id="KFQoRSMoKo6lWCKC4XPC-38" value="Lavorazione capi (LAVAGGIO)" style="shape=umlFrame;whiteSpace=wrap;html=1;pointerEvents=0;recursiveResize=0;container=0;collapsible=0;width=160;fontColor=light-dark(#000000,#FFFFFF);" vertex="1" parent="1">
          <mxGeometry x="440" y="280" width="1250" height="690" as="geometry" />
        </mxCell>
        <mxCell id="KFQoRSMoKo6lWCKC4XPC-39" value="Operatore" style="shape=umlActor;verticalLabelPosition=bottom;verticalAlign=top;html=1;outlineConnect=0;fontColor=light-dark(#000000,#FFFFFF);" vertex="1" parent="1">
          <mxGeometry x="550" y="350" width="30" height="60" as="geometry" />
        </mxCell>
        <mxCell id="KFQoRSMoKo6lWCKC4XPC-40" value="" style="endArrow=none;dashed=1;html=1;rounded=0;fontColor=light-dark(#000000,#FFFFFF);" edge="1" parent="1" source="KFQoRSMoKo6lWCKC4XPC-42">
          <mxGeometry width="50" height="50" relative="1" as="geometry">
            <mxPoint x="564.72" y="690" as="sourcePoint" />
            <mxPoint x="565" y="430" as="targetPoint" />
          </mxGeometry>
        </mxCell>
        <mxCell id="KFQoRSMoKo6lWCKC4XPC-41" value="" style="endArrow=none;dashed=1;html=1;rounded=0;fontColor=light-dark(#000000,#FFFFFF);" edge="1" parent="1" target="KFQoRSMoKo6lWCKC4XPC-42">
          <mxGeometry width="50" height="50" relative="1" as="geometry">
            <mxPoint x="565" y="950" as="sourcePoint" />
            <mxPoint x="564.72" y="440" as="targetPoint" />
          </mxGeometry>
        </mxCell>
        <mxCell id="KFQoRSMoKo6lWCKC4XPC-42" value="" style="html=1;points=[];perimeter=orthogonalPerimeter;outlineConnect=0;targetShapes=umlLifeline;portConstraint=eastwest;newEdgeStyle={&quot;edgeStyle&quot;:&quot;elbowEdgeStyle&quot;,&quot;elbow&quot;:&quot;vertical&quot;,&quot;curved&quot;:0,&quot;rounded&quot;:0};fontColor=light-dark(#000000,#FFFFFF);" vertex="1" parent="1">
          <mxGeometry x="560" y="460" width="10" height="470" as="geometry" />
        </mxCell>
        <mxCell id="KFQoRSMoKo6lWCKC4XPC-43" value="azioneAvvioProcesso()" style="html=1;verticalAlign=bottom;endArrow=block;edgeStyle=elbowEdgeStyle;elbow=vertical;curved=0;rounded=0;fontColor=light-dark(#000000,#FFFFFF);" edge="1" parent="1" target="KFQoRSMoKo6lWCKC4XPC-31">
          <mxGeometry relative="1" as="geometry">
            <mxPoint x="570" y="480" as="sourcePoint" />
            <Array as="points">
              <mxPoint x="655" y="480" />
            </Array>
            <mxPoint x="740" y="480" as="targetPoint" />
            <mxPoint as="offset" />
          </mxGeometry>
        </mxCell>
        <mxCell id="KFQoRSMoKo6lWCKC4XPC-52" value="checkStatoStazione()" style="html=1;verticalAlign=bottom;endArrow=block;edgeStyle=elbowEdgeStyle;elbow=vertical;curved=0;rounded=0;fontColor=light-dark(#000000,#FFFFFF);" edge="1" parent="1">
          <mxGeometry relative="1" as="geometry">
            <mxPoint x="855" y="570" as="sourcePoint" />
            <Array as="points">
              <mxPoint x="1135" y="570" />
              <mxPoint x="1220" y="604.5799999999999" />
              <mxPoint x="1140" y="514.58" />
            </Array>
            <mxPoint x="1145" y="570" as="targetPoint" />
            <mxPoint as="offset" />
          </mxGeometry>
        </mxCell>
        <mxCell id="KFQoRSMoKo6lWCKC4XPC-53" value="&lt;font style=&quot;color: light-dark(rgb(0, 0, 0), rgb(51, 255, 255));&quot;&gt;s1 : StazioneLavaggio&lt;/font&gt;" style="shape=umlLifeline;perimeter=lifelinePerimeter;whiteSpace=wrap;html=1;container=0;dropTarget=0;collapsible=0;recursiveResize=0;outlineConnect=0;portConstraint=eastwest;newEdgeStyle={&quot;edgeStyle&quot;:&quot;elbowEdgeStyle&quot;,&quot;elbow&quot;:&quot;vertical&quot;,&quot;curved&quot;:0,&quot;rounded&quot;:0};fontColor=light-dark(#000000,#FFFFFF);" vertex="1" parent="1">
          <mxGeometry x="1350" y="390" width="100" height="520" as="geometry" />
        </mxCell>
        <mxCell id="KFQoRSMoKo6lWCKC4XPC-54" value="" style="html=1;points=[];perimeter=orthogonalPerimeter;outlineConnect=0;targetShapes=umlLifeline;portConstraint=eastwest;newEdgeStyle={&quot;edgeStyle&quot;:&quot;elbowEdgeStyle&quot;,&quot;elbow&quot;:&quot;vertical&quot;,&quot;curved&quot;:0,&quot;rounded&quot;:0};fontColor=light-dark(#000000,#FFFFFF);" vertex="1" parent="KFQoRSMoKo6lWCKC4XPC-53">
          <mxGeometry x="45" y="210" width="10" height="280" as="geometry" />
        </mxCell>
        <mxCell id="PTnmxzgZ-QWiYPHwj2HS-1" value="CONTROLLER&lt;br&gt;DI CASO D&#39;USO" style="text;html=1;align=center;verticalAlign=middle;resizable=0;points=[];autosize=1;strokeColor=none;fillColor=none;fontColor=light-dark(#000000,#FFFFFF);" vertex="1" parent="1">
          <mxGeometry x="1095" y="343" width="110" height="40" as="geometry" />
        </mxCell>
        <mxCell id="E8dHR4l544DE4IYsOj5R-2" value="setStato(statoStazione.WORKING)" style="html=1;verticalAlign=bottom;endArrow=block;edgeStyle=elbowEdgeStyle;elbow=vertical;curved=0;rounded=0;fontColor=light-dark(#000000,#FFFFFF);" edge="1" parent="1" source="KFQoRSMoKo6lWCKC4XPC-35" target="KFQoRSMoKo6lWCKC4XPC-54">
          <mxGeometry relative="1" as="geometry">
            <mxPoint x="1180" y="650" as="sourcePoint" />
            <Array as="points">
              <mxPoint x="1310" y="620" />
              <mxPoint x="1350" y="650" />
              <mxPoint x="1503" y="684.4099999999999" />
              <mxPoint x="1423" y="594.41" />
            </Array>
            <mxPoint x="1343" y="649.8299999999999" as="targetPoint" />
            <mxPoint as="offset" />
          </mxGeometry>
        </mxCell>
        <mxCell id="E8dHR4l544DE4IYsOj5R-3" value="possibile inserimento di un login&lt;br&gt;per l&#39;operatore così che veda&lt;br&gt;solo la stazione a cui è stato&lt;br&gt;assegnato" style="text;html=1;align=center;verticalAlign=middle;resizable=0;points=[];autosize=1;strokeColor=none;fillColor=none;" vertex="1" parent="1">
          <mxGeometry x="610" y="500" width="190" height="70" as="geometry" />
        </mxCell>
        <mxCell id="E8dHR4l544DE4IYsOj5R-4" value="interfaccia per l&#39;operatore mostrerà le stazioni a cui esso è associato cosicché l&#39;operatore stesso&lt;br&gt;potrà decidere quale di queste mandare in lavorazione" style="text;html=1;align=center;verticalAlign=middle;resizable=0;points=[];autosize=1;strokeColor=none;fillColor=none;fontColor=light-dark(#000000,#FF8000);" vertex="1" parent="1">
          <mxGeometry x="540" y="150" width="540" height="40" as="geometry" />
        </mxCell>
        <mxCell id="E8dHR4l544DE4IYsOj5R-5" value="possibile gestione dell&#39;interfaccia mostrando dei pulsanti verdi di fianco al bottone per notificare all&#39;operatore&lt;br&gt;che la stazione è in stato READY e quindi pronta all&#39;uso. Di conseguenza l&#39;operatore potrà scegliere solo&lt;br&gt;le stazioni READY, e una volta avviato il Processo, la stazione scelta passerà in stato di WORKING&amp;nbsp; e per un tot&lt;br&gt;rimarrà non disponibile a eventuali aperture" style="text;html=1;align=center;verticalAlign=middle;resizable=0;points=[];autosize=1;strokeColor=none;fillColor=none;fontColor=light-dark(#000000,#FF8000);" vertex="1" parent="1">
          <mxGeometry x="510" y="198" width="620" height="70" as="geometry" />
        </mxCell>
        <mxCell id="E8dHR4l544DE4IYsOj5R-6" value="setStato(statoStazione.READY)" style="html=1;verticalAlign=bottom;endArrow=block;edgeStyle=elbowEdgeStyle;elbow=vertical;curved=0;rounded=0;fontColor=light-dark(#000000,#FFFFFF);" edge="1" parent="1" source="KFQoRSMoKo6lWCKC4XPC-35" target="KFQoRSMoKo6lWCKC4XPC-54">
          <mxGeometry relative="1" as="geometry">
            <mxPoint x="1160" y="820" as="sourcePoint" />
            <Array as="points">
              <mxPoint x="1340" y="820" />
              <mxPoint x="1325" y="860" />
              <mxPoint x="1365" y="890" />
              <mxPoint x="1518" y="924.4099999999999" />
              <mxPoint x="1438" y="834.41" />
            </Array>
            <mxPoint x="1380" y="820" as="targetPoint" />
            <mxPoint as="offset" />
          </mxGeometry>
        </mxCell>
        <mxCell id="E8dHR4l544DE4IYsOj5R-8" value="STAZIONELAVORO indica una qualunque delle stazioni di lavoro che&lt;br&gt;compongono la catena di lavorazione" style="text;html=1;align=center;verticalAlign=middle;resizable=0;points=[];autosize=1;strokeColor=none;fillColor=none;fontColor=light-dark(#000000,#33FFFF);" vertex="1" parent="1">
          <mxGeometry x="1190" y="200" width="390" height="40" as="geometry" />
        </mxCell>
        <mxCell id="E8dHR4l544DE4IYsOj5R-9" value="possibile inserimento di una interfaccia a cui la classe astratta STAZIONELAVORO &lt;br&gt;faccia riferimento così da poter utilizzare l&#39;interfaccia&lt;br&gt;stessa come controller di caso d&#39;uso" style="text;html=1;align=center;verticalAlign=middle;resizable=0;points=[];autosize=1;strokeColor=none;fillColor=none;fontColor=light-dark(#000000,#33FFFF);" vertex="1" parent="1">
          <mxGeometry x="1170" y="140" width="460" height="60" as="geometry" />
        </mxCell>
        <mxCell id="E8dHR4l544DE4IYsOj5R-10" value="l:interfaccia Operatore x lavorazione" style="shape=umlLifeline;perimeter=lifelinePerimeter;whiteSpace=wrap;html=1;container=0;dropTarget=0;collapsible=0;recursiveResize=0;outlineConnect=0;portConstraint=eastwest;newEdgeStyle={&quot;edgeStyle&quot;:&quot;elbowEdgeStyle&quot;,&quot;elbow&quot;:&quot;vertical&quot;,&quot;curved&quot;:0,&quot;rounded&quot;:0};fontColor=light-dark(#000000,#FFFFFF);strokeColor=light-dark(#000000,#FF0000);" vertex="1" parent="1">
          <mxGeometry x="6660" y="1177" width="100" height="510" as="geometry" />
        </mxCell>
        <mxCell id="E8dHR4l544DE4IYsOj5R-11" value="" style="html=1;points=[];perimeter=orthogonalPerimeter;outlineConnect=0;targetShapes=umlLifeline;portConstraint=eastwest;newEdgeStyle={&quot;edgeStyle&quot;:&quot;elbowEdgeStyle&quot;,&quot;elbow&quot;:&quot;vertical&quot;,&quot;curved&quot;:0,&quot;rounded&quot;:0};fontColor=light-dark(#000000,#FFFFFF);strokeColor=light-dark(#000000,#FF0000);" vertex="1" parent="E8dHR4l544DE4IYsOj5R-10">
          <mxGeometry x="45" y="70" width="10" height="420" as="geometry" />
        </mxCell>
        <mxCell id="E8dHR4l544DE4IYsOj5R-12" value="&lt;font style=&quot;color: light-dark(rgb(0, 0, 0), rgb(255, 0, 0));&quot;&gt;c : CatenaLavorazione&lt;/font&gt;" style="shape=umlLifeline;perimeter=lifelinePerimeter;whiteSpace=wrap;html=1;container=0;dropTarget=0;collapsible=0;recursiveResize=0;outlineConnect=0;portConstraint=eastwest;newEdgeStyle={&quot;edgeStyle&quot;:&quot;elbowEdgeStyle&quot;,&quot;elbow&quot;:&quot;vertical&quot;,&quot;curved&quot;:0,&quot;rounded&quot;:0};fontColor=light-dark(#000000,#FFFFFF);strokeColor=light-dark(#000000,#FF0000);" vertex="1" parent="1">
          <mxGeometry x="6960" y="1177" width="100" height="500" as="geometry" />
        </mxCell>
        <mxCell id="E8dHR4l544DE4IYsOj5R-13" value="" style="html=1;points=[];perimeter=orthogonalPerimeter;outlineConnect=0;targetShapes=umlLifeline;portConstraint=eastwest;newEdgeStyle={&quot;edgeStyle&quot;:&quot;elbowEdgeStyle&quot;,&quot;elbow&quot;:&quot;vertical&quot;,&quot;curved&quot;:0,&quot;rounded&quot;:0};fontColor=light-dark(#000000,#FFFFFF);strokeColor=light-dark(#000000,#FF0000);" vertex="1" parent="E8dHR4l544DE4IYsOj5R-12">
          <mxGeometry x="45" y="160" width="10" height="310" as="geometry" />
        </mxCell>
        <mxCell id="E8dHR4l544DE4IYsOj5R-14" value="return segnalazione fine lavorazione" style="html=1;verticalAlign=bottom;endArrow=open;dashed=1;endSize=8;edgeStyle=elbowEdgeStyle;elbow=vertical;curved=0;rounded=0;fontColor=light-dark(#000000,#FFFFFF);strokeColor=light-dark(#000000,#FF0000);" edge="1" parent="1" source="E8dHR4l544DE4IYsOj5R-25" target="E8dHR4l544DE4IYsOj5R-11">
          <mxGeometry relative="1" as="geometry">
            <mxPoint x="6750" y="1637" as="targetPoint" />
            <Array as="points">
              <mxPoint x="6810" y="1637" />
              <mxPoint x="6932" y="1557" />
            </Array>
            <mxPoint x="7000" y="1557" as="sourcePoint" />
            <mxPoint as="offset" />
          </mxGeometry>
        </mxCell>
        <mxCell id="E8dHR4l544DE4IYsOj5R-15" value="Lavorazione capi (ASCIUGATURA)" style="shape=umlFrame;whiteSpace=wrap;html=1;pointerEvents=0;recursiveResize=0;container=0;collapsible=0;width=160;fontColor=light-dark(#000000,#FFFFFF);strokeColor=light-dark(#000000,#FF0000);" vertex="1" parent="1">
          <mxGeometry x="6300" y="1067" width="1340" height="660" as="geometry" />
        </mxCell>
        <mxCell id="E8dHR4l544DE4IYsOj5R-16" value="Operatore" style="shape=umlActor;verticalLabelPosition=bottom;verticalAlign=top;html=1;outlineConnect=0;fontColor=light-dark(#000000,#FFFFFF);strokeColor=light-dark(#000000,#FF0000);" vertex="1" parent="1">
          <mxGeometry x="6410" y="1137" width="30" height="60" as="geometry" />
        </mxCell>
        <mxCell id="E8dHR4l544DE4IYsOj5R-17" value="" style="endArrow=none;dashed=1;html=1;rounded=0;fontColor=light-dark(#000000,#FFFFFF);strokeColor=light-dark(#000000,#FF0000);" edge="1" parent="1" source="E8dHR4l544DE4IYsOj5R-19">
          <mxGeometry width="50" height="50" relative="1" as="geometry">
            <mxPoint x="6424.72" y="1477" as="sourcePoint" />
            <mxPoint x="6425" y="1217" as="targetPoint" />
          </mxGeometry>
        </mxCell>
        <mxCell id="E8dHR4l544DE4IYsOj5R-18" value="" style="endArrow=none;dashed=1;html=1;rounded=0;fontColor=light-dark(#000000,#FFFFFF);strokeColor=light-dark(#000000,#FF0000);" edge="1" parent="1" target="E8dHR4l544DE4IYsOj5R-19">
          <mxGeometry width="50" height="50" relative="1" as="geometry">
            <mxPoint x="6425" y="1327" as="sourcePoint" />
            <mxPoint x="6424.72" y="1227" as="targetPoint" />
          </mxGeometry>
        </mxCell>
        <mxCell id="E8dHR4l544DE4IYsOj5R-19" value="" style="html=1;points=[];perimeter=orthogonalPerimeter;outlineConnect=0;targetShapes=umlLifeline;portConstraint=eastwest;newEdgeStyle={&quot;edgeStyle&quot;:&quot;elbowEdgeStyle&quot;,&quot;elbow&quot;:&quot;vertical&quot;,&quot;curved&quot;:0,&quot;rounded&quot;:0};fontColor=light-dark(#000000,#FFFFFF);strokeColor=light-dark(#000000,#FF0000);" vertex="1" parent="1">
          <mxGeometry x="6420" y="1247" width="10" height="50" as="geometry" />
        </mxCell>
        <mxCell id="E8dHR4l544DE4IYsOj5R-20" value="azioneAvvioProcesso()" style="html=1;verticalAlign=bottom;endArrow=block;edgeStyle=elbowEdgeStyle;elbow=vertical;curved=0;rounded=0;fontColor=light-dark(#000000,#FFFFFF);strokeColor=light-dark(#000000,#FF0000);" edge="1" parent="1" target="E8dHR4l544DE4IYsOj5R-11">
          <mxGeometry relative="1" as="geometry">
            <mxPoint x="6430" y="1267" as="sourcePoint" />
            <Array as="points">
              <mxPoint x="6515" y="1267" />
            </Array>
            <mxPoint x="6600" y="1267" as="targetPoint" />
            <mxPoint as="offset" />
          </mxGeometry>
        </mxCell>
        <mxCell id="E8dHR4l544DE4IYsOj5R-21" value="DB" style="shape=umlLifeline;perimeter=lifelinePerimeter;whiteSpace=wrap;html=1;container=0;dropTarget=0;collapsible=0;recursiveResize=0;outlineConnect=0;portConstraint=eastwest;newEdgeStyle={&quot;edgeStyle&quot;:&quot;elbowEdgeStyle&quot;,&quot;elbow&quot;:&quot;vertical&quot;,&quot;curved&quot;:0,&quot;rounded&quot;:0};fontColor=light-dark(#000000,#FFFFFF);strokeColor=light-dark(#000000,#FF0000);" vertex="1" parent="1">
          <mxGeometry x="7500" y="1177" width="100" height="360" as="geometry" />
        </mxCell>
        <mxCell id="E8dHR4l544DE4IYsOj5R-22" value="" style="html=1;points=[];perimeter=orthogonalPerimeter;outlineConnect=0;targetShapes=umlLifeline;portConstraint=eastwest;newEdgeStyle={&quot;edgeStyle&quot;:&quot;elbowEdgeStyle&quot;,&quot;elbow&quot;:&quot;vertical&quot;,&quot;curved&quot;:0,&quot;rounded&quot;:0};fontColor=light-dark(#000000,#FFFFFF);strokeColor=light-dark(#000000,#FF0000);" vertex="1" parent="E8dHR4l544DE4IYsOj5R-21">
          <mxGeometry x="45" y="310" width="10" height="30" as="geometry" />
        </mxCell>
        <mxCell id="E8dHR4l544DE4IYsOj5R-23" value="stazione = checkStatoStazione()" style="html=1;verticalAlign=bottom;endArrow=block;edgeStyle=elbowEdgeStyle;elbow=vertical;curved=0;rounded=0;fontColor=light-dark(#000000,#FFFFFF);strokeColor=light-dark(#000000,#FF0000);" edge="1" parent="1">
          <mxGeometry relative="1" as="geometry">
            <mxPoint x="6715" y="1357" as="sourcePoint" />
            <Array as="points">
              <mxPoint x="6995" y="1357" />
              <mxPoint x="7080" y="1391.58" />
              <mxPoint x="7000" y="1301.58" />
            </Array>
            <mxPoint x="7005" y="1357" as="targetPoint" />
            <mxPoint as="offset" />
          </mxGeometry>
        </mxCell>
        <mxCell id="E8dHR4l544DE4IYsOj5R-24" value="s : StazioneAsciugatura" style="shape=umlLifeline;perimeter=lifelinePerimeter;whiteSpace=wrap;html=1;container=0;dropTarget=0;collapsible=0;recursiveResize=0;outlineConnect=0;portConstraint=eastwest;newEdgeStyle={&quot;edgeStyle&quot;:&quot;elbowEdgeStyle&quot;,&quot;elbow&quot;:&quot;vertical&quot;,&quot;curved&quot;:0,&quot;rounded&quot;:0};fontColor=light-dark(#000000,#FFFFFF);strokeColor=light-dark(#000000,#FF0000);" vertex="1" parent="1">
          <mxGeometry x="7210" y="1177" width="100" height="480" as="geometry" />
        </mxCell>
        <mxCell id="E8dHR4l544DE4IYsOj5R-25" value="" style="html=1;points=[];perimeter=orthogonalPerimeter;outlineConnect=0;targetShapes=umlLifeline;portConstraint=eastwest;newEdgeStyle={&quot;edgeStyle&quot;:&quot;elbowEdgeStyle&quot;,&quot;elbow&quot;:&quot;vertical&quot;,&quot;curved&quot;:0,&quot;rounded&quot;:0};fontColor=light-dark(#000000,#FFFFFF);strokeColor=light-dark(#000000,#FF0000);" vertex="1" parent="E8dHR4l544DE4IYsOj5R-24">
          <mxGeometry x="45" y="210" width="10" height="260" as="geometry" />
        </mxCell>
        <mxCell id="E8dHR4l544DE4IYsOj5R-26" value="CONTROLLER&lt;br&gt;DI CASO D&#39;USO" style="text;html=1;align=center;verticalAlign=middle;resizable=0;points=[];autosize=1;strokeColor=light-dark(#000000,#FF0000);fillColor=none;fontColor=light-dark(#000000,#FFFFFF);" vertex="1" parent="1">
          <mxGeometry x="6955" y="1130" width="110" height="40" as="geometry" />
        </mxCell>
        <mxCell id="E8dHR4l544DE4IYsOj5R-27" value="StazioneLavoroDAO" style="shape=umlLifeline;perimeter=lifelinePerimeter;whiteSpace=wrap;html=1;container=0;dropTarget=0;collapsible=0;recursiveResize=0;outlineConnect=0;portConstraint=eastwest;newEdgeStyle={&quot;edgeStyle&quot;:&quot;elbowEdgeStyle&quot;,&quot;elbow&quot;:&quot;vertical&quot;,&quot;curved&quot;:0,&quot;rounded&quot;:0};fontColor=light-dark(#000000,#FFFFFF);strokeColor=light-dark(#000000,#FF0000);" vertex="1" parent="1">
          <mxGeometry x="7360" y="1177" width="100" height="360" as="geometry" />
        </mxCell>
        <mxCell id="E8dHR4l544DE4IYsOj5R-28" value="" style="html=1;points=[];perimeter=orthogonalPerimeter;outlineConnect=0;targetShapes=umlLifeline;portConstraint=eastwest;newEdgeStyle={&quot;edgeStyle&quot;:&quot;elbowEdgeStyle&quot;,&quot;elbow&quot;:&quot;vertical&quot;,&quot;curved&quot;:0,&quot;rounded&quot;:0};fontColor=light-dark(#000000,#FFFFFF);strokeColor=light-dark(#000000,#FF0000);" vertex="1" parent="E8dHR4l544DE4IYsOj5R-27">
          <mxGeometry x="45" y="250" width="10" height="90" as="geometry" />
        </mxCell>
        <mxCell id="E8dHR4l544DE4IYsOj5R-29" value="updateStazione(stazione)" style="html=1;verticalAlign=bottom;endArrow=block;edgeStyle=elbowEdgeStyle;elbow=vertical;curved=0;rounded=0;fontColor=light-dark(#000000,#FFFFFF);strokeColor=light-dark(#000000,#FF0000);" edge="1" parent="1" source="E8dHR4l544DE4IYsOj5R-13" target="E8dHR4l544DE4IYsOj5R-28">
          <mxGeometry relative="1" as="geometry">
            <mxPoint x="7020" y="1487" as="sourcePoint" />
            <Array as="points">
              <mxPoint x="7250" y="1457" />
              <mxPoint x="7280" y="1497" />
              <mxPoint x="7215" y="1487" />
              <mxPoint x="7380" y="1521.58" />
              <mxPoint x="7300" y="1431.58" />
            </Array>
            <mxPoint x="7220" y="1487" as="targetPoint" />
            <mxPoint as="offset" />
          </mxGeometry>
        </mxCell>
        <mxCell id="E8dHR4l544DE4IYsOj5R-30" value="executeQuery()" style="html=1;verticalAlign=bottom;endArrow=block;edgeStyle=elbowEdgeStyle;elbow=vertical;curved=0;rounded=0;fontColor=light-dark(#000000,#FFFFFF);strokeColor=light-dark(#000000,#FF0000);" edge="1" parent="1" source="E8dHR4l544DE4IYsOj5R-28" target="E8dHR4l544DE4IYsOj5R-22">
          <mxGeometry relative="1" as="geometry">
            <mxPoint x="7400" y="1507" as="sourcePoint" />
            <Array as="points">
              <mxPoint x="7500" y="1497" />
              <mxPoint x="7520" y="1507" />
              <mxPoint x="7750" y="1541.58" />
              <mxPoint x="7670" y="1451.58" />
            </Array>
            <mxPoint x="7540" y="1507" as="targetPoint" />
            <mxPoint as="offset" />
          </mxGeometry>
        </mxCell>
        <mxCell id="E8dHR4l544DE4IYsOj5R-33" value="setStato(statoStazione.WORKING)" style="html=1;verticalAlign=bottom;endArrow=block;edgeStyle=elbowEdgeStyle;elbow=vertical;curved=0;rounded=0;fontColor=light-dark(#000000,#FFFFFF);strokeColor=light-dark(#000000,#FF0000);" edge="1" parent="1" source="E8dHR4l544DE4IYsOj5R-13" target="E8dHR4l544DE4IYsOj5R-25">
          <mxGeometry relative="1" as="geometry">
            <mxPoint x="7040" y="1437" as="sourcePoint" />
            <Array as="points">
              <mxPoint x="7170" y="1407" />
              <mxPoint x="7210" y="1437" />
              <mxPoint x="7363" y="1471.4099999999999" />
              <mxPoint x="7283" y="1381.4099999999999" />
            </Array>
            <mxPoint x="7203" y="1436.83" as="targetPoint" />
            <mxPoint as="offset" />
          </mxGeometry>
        </mxCell>
        <mxCell id="E8dHR4l544DE4IYsOj5R-34" value="possibile inserimento di un login&lt;br&gt;per l&#39;operatore così che veda&lt;br&gt;solo la stazione a cui è stato&lt;br&gt;assegnato" style="text;html=1;align=center;verticalAlign=middle;resizable=0;points=[];autosize=1;strokeColor=light-dark(#000000,#FF0000);fillColor=none;" vertex="1" parent="1">
          <mxGeometry x="6470" y="1287" width="190" height="70" as="geometry" />
        </mxCell>
        <mxCell id="E8dHR4l544DE4IYsOj5R-35" value="setStato(statoStazione.READY)" style="html=1;verticalAlign=bottom;endArrow=block;edgeStyle=elbowEdgeStyle;elbow=vertical;curved=0;rounded=0;fontColor=light-dark(#000000,#FFFFFF);strokeColor=light-dark(#000000,#FF0000);" edge="1" parent="1" source="E8dHR4l544DE4IYsOj5R-13" target="E8dHR4l544DE4IYsOj5R-25">
          <mxGeometry relative="1" as="geometry">
            <mxPoint x="7020" y="1517" as="sourcePoint" />
            <Array as="points">
              <mxPoint x="7175" y="1517" />
              <mxPoint x="7215" y="1547" />
              <mxPoint x="7368" y="1581.4099999999999" />
              <mxPoint x="7288" y="1491.4099999999999" />
            </Array>
            <mxPoint x="7240" y="1517" as="targetPoint" />
            <mxPoint as="offset" />
          </mxGeometry>
        </mxCell>
        <mxCell id="E8dHR4l544DE4IYsOj5R-36" value="svuotaStazione(stazione)" style="html=1;verticalAlign=bottom;endArrow=block;edgeStyle=elbowEdgeStyle;elbow=vertical;curved=0;rounded=0;fontColor=light-dark(#000000,#FFFFFF);strokeColor=light-dark(#000000,#FF0000);" edge="1" parent="1" source="E8dHR4l544DE4IYsOj5R-11" target="E8dHR4l544DE4IYsOj5R-13">
          <mxGeometry relative="1" as="geometry">
            <mxPoint x="6720" y="1557" as="sourcePoint" />
            <Array as="points">
              <mxPoint x="7000" y="1557" />
              <mxPoint x="7085" y="1591.58" />
              <mxPoint x="7005" y="1501.58" />
            </Array>
            <mxPoint x="6990" y="1557" as="targetPoint" />
            <mxPoint as="offset" />
          </mxGeometry>
        </mxCell>
        <mxCell id="E8dHR4l544DE4IYsOj5R-37" value="&lt;span style=&quot;color: rgb(255, 128, 0);&quot;&gt;l:GUI&lt;/span&gt;&lt;br style=&quot;color: rgb(255, 128, 0);&quot;&gt;&lt;span style=&quot;color: rgb(255, 128, 0);&quot;&gt;Operatore x lavorazione&lt;/span&gt;" style="shape=umlLifeline;perimeter=lifelinePerimeter;whiteSpace=wrap;html=1;container=0;dropTarget=0;collapsible=0;recursiveResize=0;outlineConnect=0;portConstraint=eastwest;newEdgeStyle={&quot;edgeStyle&quot;:&quot;elbowEdgeStyle&quot;,&quot;elbow&quot;:&quot;vertical&quot;,&quot;curved&quot;:0,&quot;rounded&quot;:0};fontColor=light-dark(#000000,#FFFFFF);" vertex="1" parent="1">
          <mxGeometry x="800" y="1990" width="100" height="530" as="geometry" />
        </mxCell>
        <mxCell id="E8dHR4l544DE4IYsOj5R-38" value="" style="html=1;points=[];perimeter=orthogonalPerimeter;outlineConnect=0;targetShapes=umlLifeline;portConstraint=eastwest;newEdgeStyle={&quot;edgeStyle&quot;:&quot;elbowEdgeStyle&quot;,&quot;elbow&quot;:&quot;vertical&quot;,&quot;curved&quot;:0,&quot;rounded&quot;:0};fontColor=light-dark(#000000,#FFFFFF);" vertex="1" parent="E8dHR4l544DE4IYsOj5R-37">
          <mxGeometry x="45" y="70" width="10" height="450" as="geometry" />
        </mxCell>
        <mxCell id="E8dHR4l544DE4IYsOj5R-39" value="&lt;font style=&quot;color: light-dark(rgb(0, 0, 0), rgb(255, 0, 0));&quot;&gt;c : CatenaLavorazione&lt;/font&gt;" style="shape=umlLifeline;perimeter=lifelinePerimeter;whiteSpace=wrap;html=1;container=0;dropTarget=0;collapsible=0;recursiveResize=0;outlineConnect=0;portConstraint=eastwest;newEdgeStyle={&quot;edgeStyle&quot;:&quot;elbowEdgeStyle&quot;,&quot;elbow&quot;:&quot;vertical&quot;,&quot;curved&quot;:0,&quot;rounded&quot;:0};fontColor=light-dark(#000000,#FFFFFF);" vertex="1" parent="1">
          <mxGeometry x="1100" y="1990" width="100" height="530" as="geometry" />
        </mxCell>
        <mxCell id="E8dHR4l544DE4IYsOj5R-40" value="" style="html=1;points=[];perimeter=orthogonalPerimeter;outlineConnect=0;targetShapes=umlLifeline;portConstraint=eastwest;newEdgeStyle={&quot;edgeStyle&quot;:&quot;elbowEdgeStyle&quot;,&quot;elbow&quot;:&quot;vertical&quot;,&quot;curved&quot;:0,&quot;rounded&quot;:0};fontColor=light-dark(#000000,#FFFFFF);" vertex="1" parent="E8dHR4l544DE4IYsOj5R-39">
          <mxGeometry x="45" y="160" width="10" height="360" as="geometry" />
        </mxCell>
        <mxCell id="HvNu41siJUzFplcwvGJl-31" value="" style="endArrow=classic;html=1;rounded=0;fontColor=light-dark(#000000,#FFFFFF);" edge="1" parent="E8dHR4l544DE4IYsOj5R-39" source="E8dHR4l544DE4IYsOj5R-40" target="E8dHR4l544DE4IYsOj5R-40">
          <mxGeometry width="50" height="50" relative="1" as="geometry">
            <mxPoint x="58.75" y="338" as="sourcePoint" />
            <mxPoint x="58.75" y="348" as="targetPoint" />
            <Array as="points">
              <mxPoint x="81.25" y="338" />
              <mxPoint x="81.25" y="348" />
            </Array>
          </mxGeometry>
        </mxCell>
        <mxCell id="HvNu41siJUzFplcwvGJl-33" value="svuotaStazione()" style="edgeLabel;html=1;align=center;verticalAlign=middle;resizable=0;points=[];" connectable="0" vertex="1" parent="HvNu41siJUzFplcwvGJl-31">
          <mxGeometry x="0.0295" y="-1" relative="1" as="geometry">
            <mxPoint x="50" y="-4" as="offset" />
          </mxGeometry>
        </mxCell>
        <mxCell id="E8dHR4l544DE4IYsOj5R-41" value="return fine lavorazione" style="html=1;verticalAlign=bottom;endArrow=open;dashed=1;endSize=8;edgeStyle=elbowEdgeStyle;elbow=vertical;curved=0;rounded=0;fontColor=light-dark(#000000,#FFFFFF);" edge="1" parent="1" source="E8dHR4l544DE4IYsOj5R-52" target="E8dHR4l544DE4IYsOj5R-40">
          <mxGeometry relative="1" as="geometry">
            <mxPoint x="1210" y="2490" as="targetPoint" />
            <Array as="points">
              <mxPoint x="1340" y="2480" />
              <mxPoint x="1260" y="2470" />
              <mxPoint x="1280" y="2490" />
              <mxPoint x="1230" y="2470" />
              <mxPoint x="950" y="2450" />
              <mxPoint x="1072" y="2370" />
            </Array>
            <mxPoint x="1140" y="2370" as="sourcePoint" />
            <mxPoint as="offset" />
          </mxGeometry>
        </mxCell>
        <mxCell id="E8dHR4l544DE4IYsOj5R-42" value="Lavorazione capi (STIRATURA)" style="shape=umlFrame;whiteSpace=wrap;html=1;pointerEvents=0;recursiveResize=0;container=0;collapsible=0;width=160;fontColor=light-dark(#000000,#FFFFFF);" vertex="1" parent="1">
          <mxGeometry x="440" y="1880" width="1460" height="720" as="geometry" />
        </mxCell>
        <mxCell id="E8dHR4l544DE4IYsOj5R-43" value="Operatore" style="shape=umlActor;verticalLabelPosition=bottom;verticalAlign=top;html=1;outlineConnect=0;fontColor=light-dark(#000000,#FFFFFF);" vertex="1" parent="1">
          <mxGeometry x="550" y="1950" width="30" height="60" as="geometry" />
        </mxCell>
        <mxCell id="E8dHR4l544DE4IYsOj5R-44" value="" style="endArrow=none;dashed=1;html=1;rounded=0;fontColor=light-dark(#000000,#FFFFFF);" edge="1" parent="1" source="E8dHR4l544DE4IYsOj5R-46">
          <mxGeometry width="50" height="50" relative="1" as="geometry">
            <mxPoint x="564.72" y="2290" as="sourcePoint" />
            <mxPoint x="565" y="2030" as="targetPoint" />
          </mxGeometry>
        </mxCell>
        <mxCell id="E8dHR4l544DE4IYsOj5R-45" value="" style="endArrow=none;dashed=1;html=1;rounded=0;fontColor=light-dark(#000000,#FFFFFF);" edge="1" parent="1" target="E8dHR4l544DE4IYsOj5R-46">
          <mxGeometry width="50" height="50" relative="1" as="geometry">
            <mxPoint x="565" y="2540" as="sourcePoint" />
            <mxPoint x="564.72" y="2040" as="targetPoint" />
          </mxGeometry>
        </mxCell>
        <mxCell id="E8dHR4l544DE4IYsOj5R-46" value="" style="html=1;points=[];perimeter=orthogonalPerimeter;outlineConnect=0;targetShapes=umlLifeline;portConstraint=eastwest;newEdgeStyle={&quot;edgeStyle&quot;:&quot;elbowEdgeStyle&quot;,&quot;elbow&quot;:&quot;vertical&quot;,&quot;curved&quot;:0,&quot;rounded&quot;:0};fontColor=light-dark(#000000,#FFFFFF);" vertex="1" parent="1">
          <mxGeometry x="560" y="2060" width="10" height="460" as="geometry" />
        </mxCell>
        <mxCell id="E8dHR4l544DE4IYsOj5R-47" value="azioneAvvioProcesso()" style="html=1;verticalAlign=bottom;endArrow=block;edgeStyle=elbowEdgeStyle;elbow=vertical;curved=0;rounded=0;fontColor=light-dark(#000000,#FFFFFF);" edge="1" parent="1" target="E8dHR4l544DE4IYsOj5R-38">
          <mxGeometry relative="1" as="geometry">
            <mxPoint x="570" y="2080" as="sourcePoint" />
            <Array as="points">
              <mxPoint x="655" y="2080" />
            </Array>
            <mxPoint x="740" y="2080" as="targetPoint" />
            <mxPoint as="offset" />
          </mxGeometry>
        </mxCell>
        <mxCell id="E8dHR4l544DE4IYsOj5R-48" value="DB" style="shape=umlLifeline;perimeter=lifelinePerimeter;whiteSpace=wrap;html=1;container=0;dropTarget=0;collapsible=0;recursiveResize=0;outlineConnect=0;portConstraint=eastwest;newEdgeStyle={&quot;edgeStyle&quot;:&quot;elbowEdgeStyle&quot;,&quot;elbow&quot;:&quot;vertical&quot;,&quot;curved&quot;:0,&quot;rounded&quot;:0};fontColor=light-dark(#000000,#FFFFFF);" vertex="1" parent="1">
          <mxGeometry x="1760" y="1990" width="100" height="470" as="geometry" />
        </mxCell>
        <mxCell id="E8dHR4l544DE4IYsOj5R-49" value="" style="html=1;points=[];perimeter=orthogonalPerimeter;outlineConnect=0;targetShapes=umlLifeline;portConstraint=eastwest;newEdgeStyle={&quot;edgeStyle&quot;:&quot;elbowEdgeStyle&quot;,&quot;elbow&quot;:&quot;vertical&quot;,&quot;curved&quot;:0,&quot;rounded&quot;:0};fontColor=light-dark(#000000,#FFFFFF);" vertex="1" parent="E8dHR4l544DE4IYsOj5R-48">
          <mxGeometry x="45" y="420" width="10" height="30" as="geometry" />
        </mxCell>
        <mxCell id="E8dHR4l544DE4IYsOj5R-50" value="checkStatoStazione()" style="html=1;verticalAlign=bottom;endArrow=block;edgeStyle=elbowEdgeStyle;elbow=vertical;curved=0;rounded=0;fontColor=light-dark(#000000,#FFFFFF);" edge="1" parent="1">
          <mxGeometry relative="1" as="geometry">
            <mxPoint x="855" y="2170" as="sourcePoint" />
            <Array as="points">
              <mxPoint x="1135" y="2170" />
              <mxPoint x="1220" y="2204.58" />
              <mxPoint x="1140" y="2114.58" />
            </Array>
            <mxPoint x="1145" y="2170" as="targetPoint" />
            <mxPoint as="offset" />
          </mxGeometry>
        </mxCell>
        <mxCell id="E8dHR4l544DE4IYsOj5R-51" value="s3 : StazioneStiratura" style="shape=umlLifeline;perimeter=lifelinePerimeter;whiteSpace=wrap;html=1;container=0;dropTarget=0;collapsible=0;recursiveResize=0;outlineConnect=0;portConstraint=eastwest;newEdgeStyle={&quot;edgeStyle&quot;:&quot;elbowEdgeStyle&quot;,&quot;elbow&quot;:&quot;vertical&quot;,&quot;curved&quot;:0,&quot;rounded&quot;:0};fontColor=light-dark(#000000,#FFFFFF);" vertex="1" parent="1">
          <mxGeometry x="1350" y="1990" width="100" height="530" as="geometry" />
        </mxCell>
        <mxCell id="E8dHR4l544DE4IYsOj5R-52" value="" style="html=1;points=[];perimeter=orthogonalPerimeter;outlineConnect=0;targetShapes=umlLifeline;portConstraint=eastwest;newEdgeStyle={&quot;edgeStyle&quot;:&quot;elbowEdgeStyle&quot;,&quot;elbow&quot;:&quot;vertical&quot;,&quot;curved&quot;:0,&quot;rounded&quot;:0};fontColor=light-dark(#000000,#FFFFFF);" vertex="1" parent="E8dHR4l544DE4IYsOj5R-51">
          <mxGeometry x="45" y="210" width="10" height="300" as="geometry" />
        </mxCell>
        <mxCell id="E8dHR4l544DE4IYsOj5R-53" value="CONTROLLER&lt;br&gt;DI CASO D&#39;USO" style="text;html=1;align=center;verticalAlign=middle;resizable=0;points=[];autosize=1;strokeColor=none;fillColor=none;fontColor=light-dark(#000000,#FFFFFF);" vertex="1" parent="1">
          <mxGeometry x="1095" y="1943" width="110" height="40" as="geometry" />
        </mxCell>
        <mxCell id="E8dHR4l544DE4IYsOj5R-60" value="setStato(statoStazione.WORKING)" style="html=1;verticalAlign=bottom;endArrow=block;edgeStyle=elbowEdgeStyle;elbow=vertical;curved=0;rounded=0;fontColor=light-dark(#000000,#FFFFFF);" edge="1" parent="1" source="E8dHR4l544DE4IYsOj5R-40" target="E8dHR4l544DE4IYsOj5R-52">
          <mxGeometry relative="1" as="geometry">
            <mxPoint x="1180" y="2250" as="sourcePoint" />
            <Array as="points">
              <mxPoint x="1310" y="2220" />
              <mxPoint x="1350" y="2250" />
              <mxPoint x="1503" y="2284.41" />
              <mxPoint x="1423" y="2194.41" />
            </Array>
            <mxPoint x="1343" y="2249.83" as="targetPoint" />
            <mxPoint as="offset" />
          </mxGeometry>
        </mxCell>
        <mxCell id="E8dHR4l544DE4IYsOj5R-61" value="possibile inserimento di un login&lt;br&gt;per l&#39;operatore così che veda&lt;br&gt;solo la stazione a cui è stato&lt;br&gt;assegnato" style="text;html=1;align=center;verticalAlign=middle;resizable=0;points=[];autosize=1;strokeColor=none;fillColor=none;" vertex="1" parent="1">
          <mxGeometry x="610" y="2100" width="190" height="70" as="geometry" />
        </mxCell>
        <mxCell id="E8dHR4l544DE4IYsOj5R-62" value="setStato(statoStazione.READY)" style="html=1;verticalAlign=bottom;endArrow=block;edgeStyle=elbowEdgeStyle;elbow=vertical;curved=0;rounded=0;fontColor=light-dark(#000000,#FFFFFF);" edge="1" parent="1" source="E8dHR4l544DE4IYsOj5R-40" target="E8dHR4l544DE4IYsOj5R-52">
          <mxGeometry relative="1" as="geometry">
            <mxPoint x="1160.0000000000002" y="2290" as="sourcePoint" />
            <Array as="points">
              <mxPoint x="1315" y="2290" />
              <mxPoint x="1320" y="2300" />
              <mxPoint x="1360" y="2330" />
              <mxPoint x="1513" y="2364.41" />
              <mxPoint x="1433" y="2274.41" />
            </Array>
            <mxPoint x="1380" y="2290" as="targetPoint" />
            <mxPoint as="offset" />
          </mxGeometry>
        </mxCell>
        <mxCell id="E8dHR4l544DE4IYsOj5R-64" value="CapoDAO" style="shape=umlLifeline;perimeter=lifelinePerimeter;whiteSpace=wrap;html=1;container=0;dropTarget=0;collapsible=0;recursiveResize=0;outlineConnect=0;portConstraint=eastwest;newEdgeStyle={&quot;edgeStyle&quot;:&quot;elbowEdgeStyle&quot;,&quot;elbow&quot;:&quot;vertical&quot;,&quot;curved&quot;:0,&quot;rounded&quot;:0};fontColor=light-dark(#000000,#FFFFFF);" vertex="1" parent="1">
          <mxGeometry x="1570" y="1990" width="100" height="480" as="geometry" />
        </mxCell>
        <mxCell id="E8dHR4l544DE4IYsOj5R-65" value="" style="html=1;points=[];perimeter=orthogonalPerimeter;outlineConnect=0;targetShapes=umlLifeline;portConstraint=eastwest;newEdgeStyle={&quot;edgeStyle&quot;:&quot;elbowEdgeStyle&quot;,&quot;elbow&quot;:&quot;vertical&quot;,&quot;curved&quot;:0,&quot;rounded&quot;:0};fontColor=light-dark(#000000,#FFFFFF);" vertex="1" parent="E8dHR4l544DE4IYsOj5R-64">
          <mxGeometry x="45" y="400" width="10" height="50" as="geometry" />
        </mxCell>
        <mxCell id="E8dHR4l544DE4IYsOj5R-66" value="updateStatoCapo(capo)" style="html=1;verticalAlign=bottom;endArrow=block;edgeStyle=elbowEdgeStyle;elbow=vertical;curved=0;rounded=0;fontColor=light-dark(#000000,#FFFFFF);" edge="1" parent="1" source="E8dHR4l544DE4IYsOj5R-40" target="E8dHR4l544DE4IYsOj5R-65">
          <mxGeometry relative="1" as="geometry">
            <mxPoint x="1160" y="2400" as="sourcePoint" />
            <Array as="points">
              <mxPoint x="1550" y="2410" />
              <mxPoint x="1395" y="2400" />
              <mxPoint x="1425" y="2440" />
              <mxPoint x="1360" y="2430" />
              <mxPoint x="1525" y="2464.58" />
              <mxPoint x="1445" y="2374.58" />
            </Array>
            <mxPoint x="1550" y="2400" as="targetPoint" />
            <mxPoint as="offset" />
          </mxGeometry>
        </mxCell>
        <mxCell id="E8dHR4l544DE4IYsOj5R-67" value="loop" style="shape=umlFrame;whiteSpace=wrap;html=1;pointerEvents=0;recursiveResize=0;container=1;collapsible=0;width=60;height=20;fontColor=light-dark(#000000,#FFFFFF);" vertex="1" parent="1">
          <mxGeometry x="1070" y="2380" width="770" height="70" as="geometry" />
        </mxCell>
        <mxCell id="E8dHR4l544DE4IYsOj5R-68" value="[numCapi &amp;lt; n]" style="text;html=1;align=center;verticalAlign=middle;resizable=0;points=[];autosize=1;strokeColor=none;fillColor=none;fontColor=light-dark(#000000,#FFFFFF);fontSize=10;" vertex="1" parent="E8dHR4l544DE4IYsOj5R-67">
          <mxGeometry x="-10" y="20" width="90" height="30" as="geometry" />
        </mxCell>
        <mxCell id="E8dHR4l544DE4IYsOj5R-69" value="executeQuery()" style="html=1;verticalAlign=bottom;endArrow=block;edgeStyle=elbowEdgeStyle;elbow=vertical;curved=0;rounded=0;fontColor=light-dark(#000000,#FFFFFF);" edge="1" parent="1" source="E8dHR4l544DE4IYsOj5R-65" target="E8dHR4l544DE4IYsOj5R-49">
          <mxGeometry relative="1" as="geometry">
            <mxPoint x="1745" y="2430" as="sourcePoint" />
            <Array as="points">
              <mxPoint x="1750" y="2430" />
              <mxPoint x="1850" y="2440" />
              <mxPoint x="2080" y="2474.58" />
              <mxPoint x="2000" y="2384.58" />
            </Array>
            <mxPoint x="1790" y="2430" as="targetPoint" />
            <mxPoint as="offset" />
          </mxGeometry>
        </mxCell>
        <mxCell id="E8dHR4l544DE4IYsOj5R-70" value="s2 : StazioneAsciugatura" style="shape=umlLifeline;perimeter=lifelinePerimeter;whiteSpace=wrap;html=1;container=0;dropTarget=0;collapsible=0;recursiveResize=0;outlineConnect=0;portConstraint=eastwest;newEdgeStyle={&quot;edgeStyle&quot;:&quot;elbowEdgeStyle&quot;,&quot;elbow&quot;:&quot;vertical&quot;,&quot;curved&quot;:0,&quot;rounded&quot;:0};fontColor=light-dark(#000000,#FFFFFF);" vertex="1" parent="1">
          <mxGeometry x="1540" y="390" width="100" height="380" as="geometry" />
        </mxCell>
        <mxCell id="E8dHR4l544DE4IYsOj5R-72" value="capo = removeCapo()" style="html=1;verticalAlign=bottom;endArrow=block;edgeStyle=elbowEdgeStyle;elbow=vertical;curved=0;rounded=0;fontColor=light-dark(#000000,#FFFFFF);" edge="1" parent="1">
          <mxGeometry relative="1" as="geometry">
            <mxPoint x="1155" y="710" as="sourcePoint" />
            <Array as="points">
              <mxPoint x="1350" y="710" />
              <mxPoint x="1330" y="690" />
              <mxPoint x="1315" y="710" />
              <mxPoint x="1355" y="740" />
              <mxPoint x="1508" y="774.4099999999999" />
              <mxPoint x="1428" y="684.41" />
            </Array>
            <mxPoint x="1395" y="710" as="targetPoint" />
            <mxPoint as="offset" />
          </mxGeometry>
        </mxCell>
        <mxCell id="E8dHR4l544DE4IYsOj5R-73" value="addCapo(capo)" style="html=1;verticalAlign=bottom;endArrow=block;edgeStyle=elbowEdgeStyle;elbow=vertical;curved=0;rounded=0;fontColor=light-dark(#000000,#FFFFFF);" edge="1" parent="1">
          <mxGeometry relative="1" as="geometry">
            <mxPoint x="1155" y="740" as="sourcePoint" />
            <Array as="points">
              <mxPoint x="1480" y="740" />
              <mxPoint x="1335" y="720" />
              <mxPoint x="1320" y="740" />
              <mxPoint x="1360" y="770" />
              <mxPoint x="1513" y="804.4099999999999" />
              <mxPoint x="1433" y="714.41" />
            </Array>
            <mxPoint x="1585" y="740" as="targetPoint" />
            <mxPoint as="offset" />
          </mxGeometry>
        </mxCell>
        <mxCell id="E8dHR4l544DE4IYsOj5R-77" value="loop" style="shape=umlFrame;whiteSpace=wrap;html=1;pointerEvents=0;recursiveResize=0;container=0;collapsible=0;width=60;height=20;fontColor=light-dark(#000000,#FFFFFF);" vertex="1" parent="1">
          <mxGeometry x="1070" y="690" width="540" height="80" as="geometry" />
        </mxCell>
        <mxCell id="E8dHR4l544DE4IYsOj5R-79" value="l:interfaccia Operatore x lavorazione" style="shape=umlLifeline;perimeter=lifelinePerimeter;whiteSpace=wrap;html=1;container=0;dropTarget=0;collapsible=0;recursiveResize=0;outlineConnect=0;portConstraint=eastwest;newEdgeStyle={&quot;edgeStyle&quot;:&quot;elbowEdgeStyle&quot;,&quot;elbow&quot;:&quot;vertical&quot;,&quot;curved&quot;:0,&quot;rounded&quot;:0};fontColor=light-dark(#000000,#FFFFFF);" vertex="1" parent="1">
          <mxGeometry x="4830" y="1177" width="100" height="510" as="geometry" />
        </mxCell>
        <mxCell id="E8dHR4l544DE4IYsOj5R-80" value="" style="html=1;points=[];perimeter=orthogonalPerimeter;outlineConnect=0;targetShapes=umlLifeline;portConstraint=eastwest;newEdgeStyle={&quot;edgeStyle&quot;:&quot;elbowEdgeStyle&quot;,&quot;elbow&quot;:&quot;vertical&quot;,&quot;curved&quot;:0,&quot;rounded&quot;:0};fontColor=light-dark(#000000,#FFFFFF);" vertex="1" parent="E8dHR4l544DE4IYsOj5R-79">
          <mxGeometry x="45" y="70" width="10" height="420" as="geometry" />
        </mxCell>
        <mxCell id="E8dHR4l544DE4IYsOj5R-81" value="&lt;font style=&quot;color: light-dark(rgb(0, 0, 0), rgb(255, 0, 0));&quot;&gt;c : CatenaLavorazione&lt;/font&gt;" style="shape=umlLifeline;perimeter=lifelinePerimeter;whiteSpace=wrap;html=1;container=0;dropTarget=0;collapsible=0;recursiveResize=0;outlineConnect=0;portConstraint=eastwest;newEdgeStyle={&quot;edgeStyle&quot;:&quot;elbowEdgeStyle&quot;,&quot;elbow&quot;:&quot;vertical&quot;,&quot;curved&quot;:0,&quot;rounded&quot;:0};fontColor=light-dark(#000000,#FFFFFF);" vertex="1" parent="1">
          <mxGeometry x="5130" y="1177" width="100" height="500" as="geometry" />
        </mxCell>
        <mxCell id="E8dHR4l544DE4IYsOj5R-82" value="" style="html=1;points=[];perimeter=orthogonalPerimeter;outlineConnect=0;targetShapes=umlLifeline;portConstraint=eastwest;newEdgeStyle={&quot;edgeStyle&quot;:&quot;elbowEdgeStyle&quot;,&quot;elbow&quot;:&quot;vertical&quot;,&quot;curved&quot;:0,&quot;rounded&quot;:0};fontColor=light-dark(#000000,#FFFFFF);" vertex="1" parent="E8dHR4l544DE4IYsOj5R-81">
          <mxGeometry x="45" y="160" width="10" height="310" as="geometry" />
        </mxCell>
        <mxCell id="E8dHR4l544DE4IYsOj5R-83" value="return segnalazione fine lavorazione" style="html=1;verticalAlign=bottom;endArrow=open;dashed=1;endSize=8;edgeStyle=elbowEdgeStyle;elbow=vertical;curved=0;rounded=0;fontColor=light-dark(#000000,#FFFFFF);" edge="1" parent="1" source="E8dHR4l544DE4IYsOj5R-94" target="E8dHR4l544DE4IYsOj5R-80">
          <mxGeometry relative="1" as="geometry">
            <mxPoint x="4920" y="1637" as="targetPoint" />
            <Array as="points">
              <mxPoint x="5310" y="1657" />
              <mxPoint x="4980" y="1637" />
              <mxPoint x="5102" y="1557" />
            </Array>
            <mxPoint x="5170" y="1557" as="sourcePoint" />
            <mxPoint as="offset" />
          </mxGeometry>
        </mxCell>
        <mxCell id="E8dHR4l544DE4IYsOj5R-84" value="Lavorazione capi (ASCIUGATURA)" style="shape=umlFrame;whiteSpace=wrap;html=1;pointerEvents=0;recursiveResize=0;container=0;collapsible=0;width=160;fontColor=light-dark(#000000,#FFFFFF);" vertex="1" parent="1">
          <mxGeometry x="4470" y="1067" width="1630" height="660" as="geometry" />
        </mxCell>
        <mxCell id="E8dHR4l544DE4IYsOj5R-85" value="Operatore" style="shape=umlActor;verticalLabelPosition=bottom;verticalAlign=top;html=1;outlineConnect=0;fontColor=light-dark(#000000,#FFFFFF);" vertex="1" parent="1">
          <mxGeometry x="4580" y="1137" width="30" height="60" as="geometry" />
        </mxCell>
        <mxCell id="E8dHR4l544DE4IYsOj5R-86" value="" style="endArrow=none;dashed=1;html=1;rounded=0;fontColor=light-dark(#000000,#FFFFFF);" edge="1" parent="1" source="E8dHR4l544DE4IYsOj5R-88">
          <mxGeometry width="50" height="50" relative="1" as="geometry">
            <mxPoint x="4594.72" y="1477" as="sourcePoint" />
            <mxPoint x="4595" y="1217" as="targetPoint" />
          </mxGeometry>
        </mxCell>
        <mxCell id="E8dHR4l544DE4IYsOj5R-87" value="" style="endArrow=none;dashed=1;html=1;rounded=0;fontColor=light-dark(#000000,#FFFFFF);" edge="1" parent="1" target="E8dHR4l544DE4IYsOj5R-88">
          <mxGeometry width="50" height="50" relative="1" as="geometry">
            <mxPoint x="4595" y="1327" as="sourcePoint" />
            <mxPoint x="4594.72" y="1227" as="targetPoint" />
          </mxGeometry>
        </mxCell>
        <mxCell id="E8dHR4l544DE4IYsOj5R-88" value="" style="html=1;points=[];perimeter=orthogonalPerimeter;outlineConnect=0;targetShapes=umlLifeline;portConstraint=eastwest;newEdgeStyle={&quot;edgeStyle&quot;:&quot;elbowEdgeStyle&quot;,&quot;elbow&quot;:&quot;vertical&quot;,&quot;curved&quot;:0,&quot;rounded&quot;:0};fontColor=light-dark(#000000,#FFFFFF);" vertex="1" parent="1">
          <mxGeometry x="4590" y="1247" width="10" height="50" as="geometry" />
        </mxCell>
        <mxCell id="E8dHR4l544DE4IYsOj5R-89" value="azioneAvvioProcesso()" style="html=1;verticalAlign=bottom;endArrow=block;edgeStyle=elbowEdgeStyle;elbow=vertical;curved=0;rounded=0;fontColor=light-dark(#000000,#FFFFFF);" edge="1" parent="1" target="E8dHR4l544DE4IYsOj5R-80">
          <mxGeometry relative="1" as="geometry">
            <mxPoint x="4600" y="1267" as="sourcePoint" />
            <Array as="points">
              <mxPoint x="4685" y="1267" />
            </Array>
            <mxPoint x="4770" y="1267" as="targetPoint" />
            <mxPoint as="offset" />
          </mxGeometry>
        </mxCell>
        <mxCell id="E8dHR4l544DE4IYsOj5R-90" value="DB" style="shape=umlLifeline;perimeter=lifelinePerimeter;whiteSpace=wrap;html=1;container=0;dropTarget=0;collapsible=0;recursiveResize=0;outlineConnect=0;portConstraint=eastwest;newEdgeStyle={&quot;edgeStyle&quot;:&quot;elbowEdgeStyle&quot;,&quot;elbow&quot;:&quot;vertical&quot;,&quot;curved&quot;:0,&quot;rounded&quot;:0};fontColor=light-dark(#000000,#FFFFFF);" vertex="1" parent="1">
          <mxGeometry x="5880" y="1177" width="100" height="360" as="geometry" />
        </mxCell>
        <mxCell id="E8dHR4l544DE4IYsOj5R-91" value="" style="html=1;points=[];perimeter=orthogonalPerimeter;outlineConnect=0;targetShapes=umlLifeline;portConstraint=eastwest;newEdgeStyle={&quot;edgeStyle&quot;:&quot;elbowEdgeStyle&quot;,&quot;elbow&quot;:&quot;vertical&quot;,&quot;curved&quot;:0,&quot;rounded&quot;:0};fontColor=light-dark(#000000,#FFFFFF);" vertex="1" parent="E8dHR4l544DE4IYsOj5R-90">
          <mxGeometry x="45" y="310" width="10" height="30" as="geometry" />
        </mxCell>
        <mxCell id="E8dHR4l544DE4IYsOj5R-92" value="checkStatoStazione()" style="html=1;verticalAlign=bottom;endArrow=block;edgeStyle=elbowEdgeStyle;elbow=vertical;curved=0;rounded=0;fontColor=light-dark(#000000,#FFFFFF);" edge="1" parent="1">
          <mxGeometry relative="1" as="geometry">
            <mxPoint x="4885" y="1357" as="sourcePoint" />
            <Array as="points">
              <mxPoint x="5165" y="1357" />
              <mxPoint x="5250" y="1391.58" />
              <mxPoint x="5170" y="1301.58" />
            </Array>
            <mxPoint x="5175" y="1357" as="targetPoint" />
            <mxPoint as="offset" />
          </mxGeometry>
        </mxCell>
        <mxCell id="E8dHR4l544DE4IYsOj5R-93" value="s2 : StazioneAsciugatura" style="shape=umlLifeline;perimeter=lifelinePerimeter;whiteSpace=wrap;html=1;container=0;dropTarget=0;collapsible=0;recursiveResize=0;outlineConnect=0;portConstraint=eastwest;newEdgeStyle={&quot;edgeStyle&quot;:&quot;elbowEdgeStyle&quot;,&quot;elbow&quot;:&quot;vertical&quot;,&quot;curved&quot;:0,&quot;rounded&quot;:0};fontColor=light-dark(#000000,#FFFFFF);" vertex="1" parent="1">
          <mxGeometry x="5380" y="1177" width="100" height="520" as="geometry" />
        </mxCell>
        <mxCell id="E8dHR4l544DE4IYsOj5R-94" value="" style="html=1;points=[];perimeter=orthogonalPerimeter;outlineConnect=0;targetShapes=umlLifeline;portConstraint=eastwest;newEdgeStyle={&quot;edgeStyle&quot;:&quot;elbowEdgeStyle&quot;,&quot;elbow&quot;:&quot;vertical&quot;,&quot;curved&quot;:0,&quot;rounded&quot;:0};fontColor=light-dark(#000000,#FFFFFF);" vertex="1" parent="E8dHR4l544DE4IYsOj5R-93">
          <mxGeometry x="45" y="210" width="10" height="280" as="geometry" />
        </mxCell>
        <mxCell id="E8dHR4l544DE4IYsOj5R-95" value="CONTROLLER&lt;br&gt;DI CASO D&#39;USO" style="text;html=1;align=center;verticalAlign=middle;resizable=0;points=[];autosize=1;strokeColor=none;fillColor=none;fontColor=light-dark(#000000,#FFFFFF);" vertex="1" parent="1">
          <mxGeometry x="5125" y="1130" width="110" height="40" as="geometry" />
        </mxCell>
        <mxCell id="E8dHR4l544DE4IYsOj5R-96" value="StazioneLavoroDAO" style="shape=umlLifeline;perimeter=lifelinePerimeter;whiteSpace=wrap;html=1;container=0;dropTarget=0;collapsible=0;recursiveResize=0;outlineConnect=0;portConstraint=eastwest;newEdgeStyle={&quot;edgeStyle&quot;:&quot;elbowEdgeStyle&quot;,&quot;elbow&quot;:&quot;vertical&quot;,&quot;curved&quot;:0,&quot;rounded&quot;:0};fontColor=light-dark(#000000,#FFFFFF);" vertex="1" parent="1">
          <mxGeometry x="5740" y="1177" width="100" height="360" as="geometry" />
        </mxCell>
        <mxCell id="E8dHR4l544DE4IYsOj5R-97" value="" style="html=1;points=[];perimeter=orthogonalPerimeter;outlineConnect=0;targetShapes=umlLifeline;portConstraint=eastwest;newEdgeStyle={&quot;edgeStyle&quot;:&quot;elbowEdgeStyle&quot;,&quot;elbow&quot;:&quot;vertical&quot;,&quot;curved&quot;:0,&quot;rounded&quot;:0};fontColor=light-dark(#000000,#FFFFFF);" vertex="1" parent="E8dHR4l544DE4IYsOj5R-96">
          <mxGeometry x="45" y="250" width="10" height="90" as="geometry" />
        </mxCell>
        <mxCell id="E8dHR4l544DE4IYsOj5R-98" value="updateStazione(stazione)" style="html=1;verticalAlign=bottom;endArrow=block;edgeStyle=elbowEdgeStyle;elbow=vertical;curved=0;rounded=0;fontColor=light-dark(#000000,#FFFFFF);" edge="1" parent="1" source="E8dHR4l544DE4IYsOj5R-82" target="E8dHR4l544DE4IYsOj5R-97">
          <mxGeometry relative="1" as="geometry">
            <mxPoint x="5190" y="1487" as="sourcePoint" />
            <Array as="points">
              <mxPoint x="5420" y="1457" />
              <mxPoint x="5450" y="1497" />
              <mxPoint x="5385" y="1487" />
              <mxPoint x="5550" y="1521.58" />
              <mxPoint x="5470" y="1431.58" />
            </Array>
            <mxPoint x="5390" y="1487" as="targetPoint" />
            <mxPoint as="offset" />
          </mxGeometry>
        </mxCell>
        <mxCell id="E8dHR4l544DE4IYsOj5R-99" value="executeQuery()" style="html=1;verticalAlign=bottom;endArrow=block;edgeStyle=elbowEdgeStyle;elbow=vertical;curved=0;rounded=0;fontColor=light-dark(#000000,#FFFFFF);" edge="1" parent="1" source="E8dHR4l544DE4IYsOj5R-97" target="E8dHR4l544DE4IYsOj5R-91">
          <mxGeometry relative="1" as="geometry">
            <mxPoint x="5810" y="1497" as="sourcePoint" />
            <Array as="points">
              <mxPoint x="5810" y="1497" />
              <mxPoint x="5690" y="1507" />
              <mxPoint x="5920" y="1541.58" />
              <mxPoint x="5840" y="1451.58" />
            </Array>
            <mxPoint x="5710" y="1507" as="targetPoint" />
            <mxPoint as="offset" />
          </mxGeometry>
        </mxCell>
        <mxCell id="E8dHR4l544DE4IYsOj5R-100" value="setStato(statoStazione.WORKING)" style="html=1;verticalAlign=bottom;endArrow=block;edgeStyle=elbowEdgeStyle;elbow=vertical;curved=0;rounded=0;fontColor=light-dark(#000000,#FFFFFF);" edge="1" parent="1" source="E8dHR4l544DE4IYsOj5R-82" target="E8dHR4l544DE4IYsOj5R-94">
          <mxGeometry relative="1" as="geometry">
            <mxPoint x="5210" y="1437" as="sourcePoint" />
            <Array as="points">
              <mxPoint x="5340" y="1407" />
              <mxPoint x="5380" y="1437" />
              <mxPoint x="5533" y="1471.4099999999999" />
              <mxPoint x="5453" y="1381.4099999999999" />
            </Array>
            <mxPoint x="5373" y="1436.83" as="targetPoint" />
            <mxPoint as="offset" />
          </mxGeometry>
        </mxCell>
        <mxCell id="E8dHR4l544DE4IYsOj5R-101" value="possibile inserimento di un login&lt;br&gt;per l&#39;operatore così che veda&lt;br&gt;solo la stazione a cui è stato&lt;br&gt;assegnato" style="text;html=1;align=center;verticalAlign=middle;resizable=0;points=[];autosize=1;strokeColor=none;fillColor=none;" vertex="1" parent="1">
          <mxGeometry x="4640" y="1287" width="190" height="70" as="geometry" />
        </mxCell>
        <mxCell id="E8dHR4l544DE4IYsOj5R-102" value="setStato(statoStazione.READY)" style="html=1;verticalAlign=bottom;endArrow=block;edgeStyle=elbowEdgeStyle;elbow=vertical;curved=0;rounded=0;fontColor=light-dark(#000000,#FFFFFF);" edge="1" parent="1" source="E8dHR4l544DE4IYsOj5R-82" target="E8dHR4l544DE4IYsOj5R-94">
          <mxGeometry relative="1" as="geometry">
            <mxPoint x="5190" y="1517" as="sourcePoint" />
            <Array as="points">
              <mxPoint x="5345" y="1517" />
              <mxPoint x="5385" y="1547" />
              <mxPoint x="5538" y="1581.4099999999999" />
              <mxPoint x="5458" y="1491.4099999999999" />
            </Array>
            <mxPoint x="5410" y="1517" as="targetPoint" />
            <mxPoint as="offset" />
          </mxGeometry>
        </mxCell>
        <mxCell id="E8dHR4l544DE4IYsOj5R-103" value="moveToNextStazione()" style="html=1;verticalAlign=bottom;endArrow=block;edgeStyle=elbowEdgeStyle;elbow=vertical;curved=0;rounded=0;fontColor=light-dark(#000000,#FFFFFF);" edge="1" parent="1" source="E8dHR4l544DE4IYsOj5R-80" target="E8dHR4l544DE4IYsOj5R-82">
          <mxGeometry relative="1" as="geometry">
            <mxPoint x="4890" y="1557" as="sourcePoint" />
            <Array as="points">
              <mxPoint x="5170" y="1557" />
              <mxPoint x="5255" y="1591.58" />
              <mxPoint x="5175" y="1501.58" />
            </Array>
            <mxPoint x="5160" y="1557" as="targetPoint" />
            <mxPoint as="offset" />
          </mxGeometry>
        </mxCell>
        <mxCell id="E8dHR4l544DE4IYsOj5R-104" value="s3 : StazioneStiratura" style="shape=umlLifeline;perimeter=lifelinePerimeter;whiteSpace=wrap;html=1;container=0;dropTarget=0;collapsible=0;recursiveResize=0;outlineConnect=0;portConstraint=eastwest;newEdgeStyle={&quot;edgeStyle&quot;:&quot;elbowEdgeStyle&quot;,&quot;elbow&quot;:&quot;vertical&quot;,&quot;curved&quot;:0,&quot;rounded&quot;:0};fontColor=light-dark(#000000,#FFFFFF);" vertex="1" parent="1">
          <mxGeometry x="5570" y="1177" width="100" height="480" as="geometry" />
        </mxCell>
        <mxCell id="E8dHR4l544DE4IYsOj5R-105" value="" style="html=1;points=[];perimeter=orthogonalPerimeter;outlineConnect=0;targetShapes=umlLifeline;portConstraint=eastwest;newEdgeStyle={&quot;edgeStyle&quot;:&quot;elbowEdgeStyle&quot;,&quot;elbow&quot;:&quot;vertical&quot;,&quot;curved&quot;:0,&quot;rounded&quot;:0};fontColor=light-dark(#000000,#FFFFFF);" vertex="1" parent="E8dHR4l544DE4IYsOj5R-104">
          <mxGeometry x="45" y="380" width="10" height="70" as="geometry" />
        </mxCell>
        <mxCell id="E8dHR4l544DE4IYsOj5R-106" value="capo = removeCapo()" style="html=1;verticalAlign=bottom;endArrow=block;edgeStyle=elbowEdgeStyle;elbow=vertical;curved=0;rounded=0;fontColor=light-dark(#000000,#FFFFFF);" edge="1" parent="1" source="E8dHR4l544DE4IYsOj5R-82" target="E8dHR4l544DE4IYsOj5R-94">
          <mxGeometry relative="1" as="geometry">
            <mxPoint x="5190" y="1587" as="sourcePoint" />
            <Array as="points">
              <mxPoint x="5380" y="1587" />
              <mxPoint x="5360" y="1567" />
              <mxPoint x="5345" y="1587" />
              <mxPoint x="5385" y="1617" />
              <mxPoint x="5538" y="1651.4099999999999" />
              <mxPoint x="5458" y="1561.4099999999999" />
            </Array>
            <mxPoint x="5390" y="1587" as="targetPoint" />
            <mxPoint as="offset" />
          </mxGeometry>
        </mxCell>
        <mxCell id="E8dHR4l544DE4IYsOj5R-107" value="addCapo(capo)" style="html=1;verticalAlign=bottom;endArrow=block;edgeStyle=elbowEdgeStyle;elbow=vertical;curved=0;rounded=0;fontColor=light-dark(#000000,#FFFFFF);" edge="1" parent="1" source="E8dHR4l544DE4IYsOj5R-82" target="E8dHR4l544DE4IYsOj5R-105">
          <mxGeometry relative="1" as="geometry">
            <mxPoint x="5190" y="1597" as="sourcePoint" />
            <Array as="points">
              <mxPoint x="5510" y="1617" />
              <mxPoint x="5365" y="1597" />
              <mxPoint x="5350" y="1617" />
              <mxPoint x="5390" y="1647" />
              <mxPoint x="5543" y="1681.4099999999999" />
              <mxPoint x="5463" y="1591.4099999999999" />
            </Array>
            <mxPoint x="5430" y="1597" as="targetPoint" />
            <mxPoint as="offset" />
          </mxGeometry>
        </mxCell>
        <mxCell id="E8dHR4l544DE4IYsOj5R-108" value="loop" style="shape=umlFrame;whiteSpace=wrap;html=1;pointerEvents=0;recursiveResize=0;container=1;collapsible=0;width=60;height=20;fontColor=light-dark(#000000,#FFFFFF);" vertex="1" parent="1">
          <mxGeometry x="5100" y="1567" width="540" height="70" as="geometry" />
        </mxCell>
        <mxCell id="E8dHR4l544DE4IYsOj5R-109" value="[numCapi &amp;lt; n]" style="text;html=1;align=center;verticalAlign=middle;resizable=0;points=[];autosize=1;strokeColor=none;fillColor=none;fontColor=light-dark(#000000,#FFFFFF);fontSize=10;" vertex="1" parent="E8dHR4l544DE4IYsOj5R-108">
          <mxGeometry x="-10" y="20" width="90" height="30" as="geometry" />
        </mxCell>
        <mxCell id="E8dHR4l544DE4IYsOj5R-110" value="return segnalazione fine lavorazione" style="html=1;verticalAlign=bottom;endArrow=open;dashed=1;endSize=8;edgeStyle=elbowEdgeStyle;elbow=vertical;curved=0;rounded=0;fontColor=light-dark(#000000,#FFFFFF);" edge="1" parent="1" source="KFQoRSMoKo6lWCKC4XPC-35" target="KFQoRSMoKo6lWCKC4XPC-31">
          <mxGeometry x="0.0027" relative="1" as="geometry">
            <mxPoint x="900" y="880" as="targetPoint" />
            <Array as="points">
              <mxPoint x="1025" y="880" />
              <mxPoint x="695" y="860" />
              <mxPoint x="817" y="780" />
            </Array>
            <mxPoint x="1140" y="880" as="sourcePoint" />
            <mxPoint as="offset" />
          </mxGeometry>
        </mxCell>
        <mxCell id="E8dHR4l544DE4IYsOj5R-113" value="l:interfaccia Operatore x lavorazione" style="shape=umlLifeline;perimeter=lifelinePerimeter;whiteSpace=wrap;html=1;container=0;dropTarget=0;collapsible=0;recursiveResize=0;outlineConnect=0;portConstraint=eastwest;newEdgeStyle={&quot;edgeStyle&quot;:&quot;elbowEdgeStyle&quot;,&quot;elbow&quot;:&quot;vertical&quot;,&quot;curved&quot;:0,&quot;rounded&quot;:0};fontColor=light-dark(#000000,#FFFFFF);" vertex="1" parent="1">
          <mxGeometry x="2980" y="427" width="100" height="540" as="geometry" />
        </mxCell>
        <mxCell id="E8dHR4l544DE4IYsOj5R-114" value="" style="html=1;points=[];perimeter=orthogonalPerimeter;outlineConnect=0;targetShapes=umlLifeline;portConstraint=eastwest;newEdgeStyle={&quot;edgeStyle&quot;:&quot;elbowEdgeStyle&quot;,&quot;elbow&quot;:&quot;vertical&quot;,&quot;curved&quot;:0,&quot;rounded&quot;:0};fontColor=light-dark(#000000,#FFFFFF);" vertex="1" parent="E8dHR4l544DE4IYsOj5R-113">
          <mxGeometry x="45" y="70" width="10" height="460" as="geometry" />
        </mxCell>
        <mxCell id="E8dHR4l544DE4IYsOj5R-115" value="&lt;font style=&quot;color: light-dark(rgb(0, 0, 0), rgb(255, 0, 0));&quot;&gt;c : CatenaLavorazione&lt;/font&gt;" style="shape=umlLifeline;perimeter=lifelinePerimeter;whiteSpace=wrap;html=1;container=0;dropTarget=0;collapsible=0;recursiveResize=0;outlineConnect=0;portConstraint=eastwest;newEdgeStyle={&quot;edgeStyle&quot;:&quot;elbowEdgeStyle&quot;,&quot;elbow&quot;:&quot;vertical&quot;,&quot;curved&quot;:0,&quot;rounded&quot;:0};fontColor=light-dark(#000000,#FFFFFF);" vertex="1" parent="1">
          <mxGeometry x="3280" y="427" width="100" height="530" as="geometry" />
        </mxCell>
        <mxCell id="E8dHR4l544DE4IYsOj5R-116" value="" style="html=1;points=[];perimeter=orthogonalPerimeter;outlineConnect=0;targetShapes=umlLifeline;portConstraint=eastwest;newEdgeStyle={&quot;edgeStyle&quot;:&quot;elbowEdgeStyle&quot;,&quot;elbow&quot;:&quot;vertical&quot;,&quot;curved&quot;:0,&quot;rounded&quot;:0};fontColor=light-dark(#000000,#FFFFFF);" vertex="1" parent="E8dHR4l544DE4IYsOj5R-115">
          <mxGeometry x="45" y="160" width="10" height="350" as="geometry" />
        </mxCell>
        <mxCell id="E8dHR4l544DE4IYsOj5R-117" value="return fine lavorazione" style="html=1;verticalAlign=bottom;endArrow=open;dashed=1;endSize=8;edgeStyle=elbowEdgeStyle;elbow=vertical;curved=0;rounded=0;fontColor=light-dark(#000000,#FFFFFF);" edge="1" parent="1" source="E8dHR4l544DE4IYsOj5R-128" target="E8dHR4l544DE4IYsOj5R-116">
          <mxGeometry relative="1" as="geometry">
            <mxPoint x="3390" y="907" as="targetPoint" />
            <Array as="points">
              <mxPoint x="3460" y="907" />
              <mxPoint x="3130" y="887" />
              <mxPoint x="3252" y="807" />
            </Array>
            <mxPoint x="3320" y="807" as="sourcePoint" />
            <mxPoint as="offset" />
          </mxGeometry>
        </mxCell>
        <mxCell id="E8dHR4l544DE4IYsOj5R-118" value="Lavorazione capi (LAVAGGIO)" style="shape=umlFrame;whiteSpace=wrap;html=1;pointerEvents=0;recursiveResize=0;container=0;collapsible=0;width=160;fontColor=light-dark(#000000,#FFFFFF);" vertex="1" parent="1">
          <mxGeometry x="2620" y="317" width="1630" height="660" as="geometry" />
        </mxCell>
        <mxCell id="E8dHR4l544DE4IYsOj5R-119" value="Operatore" style="shape=umlActor;verticalLabelPosition=bottom;verticalAlign=top;html=1;outlineConnect=0;fontColor=light-dark(#000000,#FFFFFF);" vertex="1" parent="1">
          <mxGeometry x="2730" y="387" width="30" height="60" as="geometry" />
        </mxCell>
        <mxCell id="E8dHR4l544DE4IYsOj5R-120" value="" style="endArrow=none;dashed=1;html=1;rounded=0;fontColor=light-dark(#000000,#FFFFFF);" edge="1" parent="1" source="E8dHR4l544DE4IYsOj5R-122">
          <mxGeometry width="50" height="50" relative="1" as="geometry">
            <mxPoint x="2744.7200000000003" y="727" as="sourcePoint" />
            <mxPoint x="2745" y="467" as="targetPoint" />
          </mxGeometry>
        </mxCell>
        <mxCell id="E8dHR4l544DE4IYsOj5R-121" value="" style="endArrow=none;dashed=1;html=1;rounded=0;fontColor=light-dark(#000000,#FFFFFF);" edge="1" parent="1" target="E8dHR4l544DE4IYsOj5R-122">
          <mxGeometry width="50" height="50" relative="1" as="geometry">
            <mxPoint x="2745" y="577" as="sourcePoint" />
            <mxPoint x="2744.7200000000003" y="477" as="targetPoint" />
          </mxGeometry>
        </mxCell>
        <mxCell id="E8dHR4l544DE4IYsOj5R-122" value="" style="html=1;points=[];perimeter=orthogonalPerimeter;outlineConnect=0;targetShapes=umlLifeline;portConstraint=eastwest;newEdgeStyle={&quot;edgeStyle&quot;:&quot;elbowEdgeStyle&quot;,&quot;elbow&quot;:&quot;vertical&quot;,&quot;curved&quot;:0,&quot;rounded&quot;:0};fontColor=light-dark(#000000,#FFFFFF);" vertex="1" parent="1">
          <mxGeometry x="2740" y="497" width="10" height="50" as="geometry" />
        </mxCell>
        <mxCell id="E8dHR4l544DE4IYsOj5R-123" value="azioneAvvioProcesso()" style="html=1;verticalAlign=bottom;endArrow=block;edgeStyle=elbowEdgeStyle;elbow=vertical;curved=0;rounded=0;fontColor=light-dark(#000000,#FFFFFF);" edge="1" parent="1" target="E8dHR4l544DE4IYsOj5R-114">
          <mxGeometry relative="1" as="geometry">
            <mxPoint x="2750" y="517" as="sourcePoint" />
            <Array as="points">
              <mxPoint x="2835" y="517" />
            </Array>
            <mxPoint x="2920" y="517" as="targetPoint" />
            <mxPoint as="offset" />
          </mxGeometry>
        </mxCell>
        <mxCell id="E8dHR4l544DE4IYsOj5R-124" value="DB" style="shape=umlLifeline;perimeter=lifelinePerimeter;whiteSpace=wrap;html=1;container=0;dropTarget=0;collapsible=0;recursiveResize=0;outlineConnect=0;portConstraint=eastwest;newEdgeStyle={&quot;edgeStyle&quot;:&quot;elbowEdgeStyle&quot;,&quot;elbow&quot;:&quot;vertical&quot;,&quot;curved&quot;:0,&quot;rounded&quot;:0};fontColor=light-dark(#000000,#FFFFFF);" vertex="1" parent="1">
          <mxGeometry x="4030" y="427" width="100" height="360" as="geometry" />
        </mxCell>
        <mxCell id="E8dHR4l544DE4IYsOj5R-125" value="" style="html=1;points=[];perimeter=orthogonalPerimeter;outlineConnect=0;targetShapes=umlLifeline;portConstraint=eastwest;newEdgeStyle={&quot;edgeStyle&quot;:&quot;elbowEdgeStyle&quot;,&quot;elbow&quot;:&quot;vertical&quot;,&quot;curved&quot;:0,&quot;rounded&quot;:0};fontColor=light-dark(#000000,#FFFFFF);" vertex="1" parent="E8dHR4l544DE4IYsOj5R-124">
          <mxGeometry x="45" y="310" width="10" height="30" as="geometry" />
        </mxCell>
        <mxCell id="E8dHR4l544DE4IYsOj5R-126" value="checkStatoStazione()" style="html=1;verticalAlign=bottom;endArrow=block;edgeStyle=elbowEdgeStyle;elbow=vertical;curved=0;rounded=0;fontColor=light-dark(#000000,#FFFFFF);" edge="1" parent="1">
          <mxGeometry relative="1" as="geometry">
            <mxPoint x="3035" y="607" as="sourcePoint" />
            <Array as="points">
              <mxPoint x="3315" y="607" />
              <mxPoint x="3400" y="641.5799999999999" />
              <mxPoint x="3320" y="551.58" />
            </Array>
            <mxPoint x="3325" y="607" as="targetPoint" />
            <mxPoint as="offset" />
          </mxGeometry>
        </mxCell>
        <mxCell id="E8dHR4l544DE4IYsOj5R-127" value="s1 : StazioneLavaggio" style="shape=umlLifeline;perimeter=lifelinePerimeter;whiteSpace=wrap;html=1;container=0;dropTarget=0;collapsible=0;recursiveResize=0;outlineConnect=0;portConstraint=eastwest;newEdgeStyle={&quot;edgeStyle&quot;:&quot;elbowEdgeStyle&quot;,&quot;elbow&quot;:&quot;vertical&quot;,&quot;curved&quot;:0,&quot;rounded&quot;:0};fontColor=light-dark(#000000,#FFFFFF);" vertex="1" parent="1">
          <mxGeometry x="3530" y="427" width="100" height="520" as="geometry" />
        </mxCell>
        <mxCell id="E8dHR4l544DE4IYsOj5R-128" value="" style="html=1;points=[];perimeter=orthogonalPerimeter;outlineConnect=0;targetShapes=umlLifeline;portConstraint=eastwest;newEdgeStyle={&quot;edgeStyle&quot;:&quot;elbowEdgeStyle&quot;,&quot;elbow&quot;:&quot;vertical&quot;,&quot;curved&quot;:0,&quot;rounded&quot;:0};fontColor=light-dark(#000000,#FFFFFF);" vertex="1" parent="E8dHR4l544DE4IYsOj5R-127">
          <mxGeometry x="45" y="210" width="10" height="280" as="geometry" />
        </mxCell>
        <mxCell id="E8dHR4l544DE4IYsOj5R-129" value="CONTROLLER&lt;br&gt;DI CASO D&#39;USO" style="text;html=1;align=center;verticalAlign=middle;resizable=0;points=[];autosize=1;strokeColor=none;fillColor=none;fontColor=light-dark(#000000,#FFFFFF);" vertex="1" parent="1">
          <mxGeometry x="3275" y="380" width="110" height="40" as="geometry" />
        </mxCell>
        <mxCell id="E8dHR4l544DE4IYsOj5R-130" value="StazioneLavoroDAO" style="shape=umlLifeline;perimeter=lifelinePerimeter;whiteSpace=wrap;html=1;container=0;dropTarget=0;collapsible=0;recursiveResize=0;outlineConnect=0;portConstraint=eastwest;newEdgeStyle={&quot;edgeStyle&quot;:&quot;elbowEdgeStyle&quot;,&quot;elbow&quot;:&quot;vertical&quot;,&quot;curved&quot;:0,&quot;rounded&quot;:0};fontColor=light-dark(#000000,#FFFFFF);" vertex="1" parent="1">
          <mxGeometry x="3890" y="427" width="100" height="360" as="geometry" />
        </mxCell>
        <mxCell id="E8dHR4l544DE4IYsOj5R-131" value="" style="html=1;points=[];perimeter=orthogonalPerimeter;outlineConnect=0;targetShapes=umlLifeline;portConstraint=eastwest;newEdgeStyle={&quot;edgeStyle&quot;:&quot;elbowEdgeStyle&quot;,&quot;elbow&quot;:&quot;vertical&quot;,&quot;curved&quot;:0,&quot;rounded&quot;:0};fontColor=light-dark(#000000,#FFFFFF);" vertex="1" parent="E8dHR4l544DE4IYsOj5R-130">
          <mxGeometry x="45" y="250" width="10" height="90" as="geometry" />
        </mxCell>
        <mxCell id="E8dHR4l544DE4IYsOj5R-132" value="updateStazione(stazione)" style="html=1;verticalAlign=bottom;endArrow=block;edgeStyle=elbowEdgeStyle;elbow=vertical;curved=0;rounded=0;fontColor=light-dark(#000000,#FFFFFF);" edge="1" parent="1" source="E8dHR4l544DE4IYsOj5R-116" target="E8dHR4l544DE4IYsOj5R-131">
          <mxGeometry relative="1" as="geometry">
            <mxPoint x="3340" y="737" as="sourcePoint" />
            <Array as="points">
              <mxPoint x="3570" y="707" />
              <mxPoint x="3600" y="747" />
              <mxPoint x="3535" y="737" />
              <mxPoint x="3700" y="771.5799999999999" />
              <mxPoint x="3620" y="681.58" />
            </Array>
            <mxPoint x="3540" y="737" as="targetPoint" />
            <mxPoint as="offset" />
          </mxGeometry>
        </mxCell>
        <mxCell id="E8dHR4l544DE4IYsOj5R-133" value="executeQuery()" style="html=1;verticalAlign=bottom;endArrow=block;edgeStyle=elbowEdgeStyle;elbow=vertical;curved=0;rounded=0;fontColor=light-dark(#000000,#FFFFFF);" edge="1" parent="1" source="E8dHR4l544DE4IYsOj5R-131" target="E8dHR4l544DE4IYsOj5R-125">
          <mxGeometry relative="1" as="geometry">
            <mxPoint x="3960" y="747" as="sourcePoint" />
            <Array as="points">
              <mxPoint x="3960" y="747" />
              <mxPoint x="3840" y="757" />
              <mxPoint x="4070" y="791.5799999999999" />
              <mxPoint x="3990" y="701.58" />
            </Array>
            <mxPoint x="3860" y="757" as="targetPoint" />
            <mxPoint as="offset" />
          </mxGeometry>
        </mxCell>
        <mxCell id="E8dHR4l544DE4IYsOj5R-134" value="setStato(statoStazione.WORKING)" style="html=1;verticalAlign=bottom;endArrow=block;edgeStyle=elbowEdgeStyle;elbow=vertical;curved=0;rounded=0;fontColor=light-dark(#000000,#FFFFFF);" edge="1" parent="1" source="E8dHR4l544DE4IYsOj5R-116" target="E8dHR4l544DE4IYsOj5R-128">
          <mxGeometry relative="1" as="geometry">
            <mxPoint x="3360" y="687" as="sourcePoint" />
            <Array as="points">
              <mxPoint x="3490" y="657" />
              <mxPoint x="3530" y="687" />
              <mxPoint x="3683" y="721.4099999999999" />
              <mxPoint x="3603" y="631.41" />
            </Array>
            <mxPoint x="3523" y="686.8299999999999" as="targetPoint" />
            <mxPoint as="offset" />
          </mxGeometry>
        </mxCell>
        <mxCell id="E8dHR4l544DE4IYsOj5R-135" value="possibile inserimento di un login&lt;br&gt;per l&#39;operatore così che veda&lt;br&gt;solo la stazione a cui è stato&lt;br&gt;assegnato" style="text;html=1;align=center;verticalAlign=middle;resizable=0;points=[];autosize=1;strokeColor=none;fillColor=none;" vertex="1" parent="1">
          <mxGeometry x="2790" y="537" width="190" height="70" as="geometry" />
        </mxCell>
        <mxCell id="E8dHR4l544DE4IYsOj5R-136" value="setStato(statoStazione.READY)" style="html=1;verticalAlign=bottom;endArrow=block;edgeStyle=elbowEdgeStyle;elbow=vertical;curved=0;rounded=0;fontColor=light-dark(#000000,#FFFFFF);" edge="1" parent="1" source="E8dHR4l544DE4IYsOj5R-116" target="E8dHR4l544DE4IYsOj5R-128">
          <mxGeometry relative="1" as="geometry">
            <mxPoint x="3340" y="767" as="sourcePoint" />
            <Array as="points">
              <mxPoint x="3495" y="767" />
              <mxPoint x="3535" y="797" />
              <mxPoint x="3688" y="831.4099999999999" />
              <mxPoint x="3608" y="741.41" />
            </Array>
            <mxPoint x="3560" y="767" as="targetPoint" />
            <mxPoint as="offset" />
          </mxGeometry>
        </mxCell>
        <mxCell id="E8dHR4l544DE4IYsOj5R-137" value="moveToNextStazione()" style="html=1;verticalAlign=bottom;endArrow=block;edgeStyle=elbowEdgeStyle;elbow=vertical;curved=0;rounded=0;fontColor=light-dark(#000000,#FFFFFF);" edge="1" parent="1" source="E8dHR4l544DE4IYsOj5R-114" target="E8dHR4l544DE4IYsOj5R-116">
          <mxGeometry relative="1" as="geometry">
            <mxPoint x="3040" y="807" as="sourcePoint" />
            <Array as="points">
              <mxPoint x="3320" y="807" />
              <mxPoint x="3405" y="841.5799999999999" />
              <mxPoint x="3325" y="751.58" />
            </Array>
            <mxPoint x="3310" y="807" as="targetPoint" />
            <mxPoint as="offset" />
          </mxGeometry>
        </mxCell>
        <mxCell id="E8dHR4l544DE4IYsOj5R-138" value="s2 : StazioneAsciugatura" style="shape=umlLifeline;perimeter=lifelinePerimeter;whiteSpace=wrap;html=1;container=0;dropTarget=0;collapsible=0;recursiveResize=0;outlineConnect=0;portConstraint=eastwest;newEdgeStyle={&quot;edgeStyle&quot;:&quot;elbowEdgeStyle&quot;,&quot;elbow&quot;:&quot;vertical&quot;,&quot;curved&quot;:0,&quot;rounded&quot;:0};fontColor=light-dark(#000000,#FFFFFF);" vertex="1" parent="1">
          <mxGeometry x="3720" y="427" width="100" height="480" as="geometry" />
        </mxCell>
        <mxCell id="E8dHR4l544DE4IYsOj5R-139" value="" style="html=1;points=[];perimeter=orthogonalPerimeter;outlineConnect=0;targetShapes=umlLifeline;portConstraint=eastwest;newEdgeStyle={&quot;edgeStyle&quot;:&quot;elbowEdgeStyle&quot;,&quot;elbow&quot;:&quot;vertical&quot;,&quot;curved&quot;:0,&quot;rounded&quot;:0};fontColor=light-dark(#000000,#FFFFFF);" vertex="1" parent="E8dHR4l544DE4IYsOj5R-138">
          <mxGeometry x="45" y="380" width="10" height="70" as="geometry" />
        </mxCell>
        <mxCell id="E8dHR4l544DE4IYsOj5R-140" value="capo = removeCapo()" style="html=1;verticalAlign=bottom;endArrow=block;edgeStyle=elbowEdgeStyle;elbow=vertical;curved=0;rounded=0;fontColor=light-dark(#000000,#FFFFFF);" edge="1" parent="1" source="E8dHR4l544DE4IYsOj5R-116" target="E8dHR4l544DE4IYsOj5R-128">
          <mxGeometry relative="1" as="geometry">
            <mxPoint x="3340" y="837" as="sourcePoint" />
            <Array as="points">
              <mxPoint x="3530" y="837" />
              <mxPoint x="3510" y="817" />
              <mxPoint x="3495" y="837" />
              <mxPoint x="3535" y="867" />
              <mxPoint x="3688" y="901.4099999999999" />
              <mxPoint x="3608" y="811.41" />
            </Array>
            <mxPoint x="3540" y="837" as="targetPoint" />
            <mxPoint as="offset" />
          </mxGeometry>
        </mxCell>
        <mxCell id="E8dHR4l544DE4IYsOj5R-141" value="addCapo(capo)" style="html=1;verticalAlign=bottom;endArrow=block;edgeStyle=elbowEdgeStyle;elbow=vertical;curved=0;rounded=0;fontColor=light-dark(#000000,#FFFFFF);" edge="1" parent="1" source="E8dHR4l544DE4IYsOj5R-116" target="E8dHR4l544DE4IYsOj5R-139">
          <mxGeometry relative="1" as="geometry">
            <mxPoint x="3340" y="847" as="sourcePoint" />
            <Array as="points">
              <mxPoint x="3660" y="867" />
              <mxPoint x="3515" y="847" />
              <mxPoint x="3500" y="867" />
              <mxPoint x="3540" y="897" />
              <mxPoint x="3693" y="931.4099999999999" />
              <mxPoint x="3613" y="841.41" />
            </Array>
            <mxPoint x="3580" y="847" as="targetPoint" />
            <mxPoint as="offset" />
          </mxGeometry>
        </mxCell>
        <mxCell id="E8dHR4l544DE4IYsOj5R-142" value="loop" style="shape=umlFrame;whiteSpace=wrap;html=1;pointerEvents=0;recursiveResize=0;container=1;collapsible=0;width=60;height=20;fontColor=light-dark(#000000,#FFFFFF);" vertex="1" parent="1">
          <mxGeometry x="3250" y="817" width="540" height="60" as="geometry" />
        </mxCell>
        <mxCell id="E8dHR4l544DE4IYsOj5R-143" value="[numCapi &amp;lt; n]" style="text;html=1;align=center;verticalAlign=middle;resizable=0;points=[];autosize=1;strokeColor=none;fillColor=none;fontColor=light-dark(#000000,#FFFFFF);fontSize=10;" vertex="1" parent="E8dHR4l544DE4IYsOj5R-142">
          <mxGeometry x="-10" y="20" width="90" height="30" as="geometry" />
        </mxCell>
        <mxCell id="E8dHR4l544DE4IYsOj5R-144" value="return segnalazione fine lavorazione" style="html=1;verticalAlign=bottom;endArrow=open;dashed=1;endSize=8;edgeStyle=elbowEdgeStyle;elbow=vertical;curved=0;rounded=0;fontColor=light-dark(#000000,#FFFFFF);" edge="1" parent="1" source="E8dHR4l544DE4IYsOj5R-116" target="E8dHR4l544DE4IYsOj5R-114">
          <mxGeometry x="0.0027" relative="1" as="geometry">
            <mxPoint x="3080" y="917" as="targetPoint" />
            <Array as="points">
              <mxPoint x="3205" y="917" />
              <mxPoint x="2875" y="897" />
              <mxPoint x="2997" y="817" />
            </Array>
            <mxPoint x="3320" y="917" as="sourcePoint" />
            <mxPoint as="offset" />
          </mxGeometry>
        </mxCell>
        <mxCell id="E8dHR4l544DE4IYsOj5R-145" value="l:interfaccia Operatore x lavorazione" style="shape=umlLifeline;perimeter=lifelinePerimeter;whiteSpace=wrap;html=1;container=0;dropTarget=0;collapsible=0;recursiveResize=0;outlineConnect=0;portConstraint=eastwest;newEdgeStyle={&quot;edgeStyle&quot;:&quot;elbowEdgeStyle&quot;,&quot;elbow&quot;:&quot;vertical&quot;,&quot;curved&quot;:0,&quot;rounded&quot;:0};fontColor=light-dark(#000000,#FFFFFF);" vertex="1" parent="1">
          <mxGeometry x="3180" y="1177" width="100" height="540" as="geometry" />
        </mxCell>
        <mxCell id="E8dHR4l544DE4IYsOj5R-146" value="" style="html=1;points=[];perimeter=orthogonalPerimeter;outlineConnect=0;targetShapes=umlLifeline;portConstraint=eastwest;newEdgeStyle={&quot;edgeStyle&quot;:&quot;elbowEdgeStyle&quot;,&quot;elbow&quot;:&quot;vertical&quot;,&quot;curved&quot;:0,&quot;rounded&quot;:0};fontColor=light-dark(#000000,#FFFFFF);" vertex="1" parent="E8dHR4l544DE4IYsOj5R-145">
          <mxGeometry x="45" y="70" width="10" height="460" as="geometry" />
        </mxCell>
        <mxCell id="E8dHR4l544DE4IYsOj5R-147" value="&lt;font style=&quot;color: light-dark(rgb(0, 0, 0), rgb(255, 0, 0));&quot;&gt;c : CatenaLavorazione&lt;/font&gt;" style="shape=umlLifeline;perimeter=lifelinePerimeter;whiteSpace=wrap;html=1;container=0;dropTarget=0;collapsible=0;recursiveResize=0;outlineConnect=0;portConstraint=eastwest;newEdgeStyle={&quot;edgeStyle&quot;:&quot;elbowEdgeStyle&quot;,&quot;elbow&quot;:&quot;vertical&quot;,&quot;curved&quot;:0,&quot;rounded&quot;:0};fontColor=light-dark(#000000,#FFFFFF);" vertex="1" parent="1">
          <mxGeometry x="3480" y="1177" width="100" height="530" as="geometry" />
        </mxCell>
        <mxCell id="E8dHR4l544DE4IYsOj5R-148" value="" style="html=1;points=[];perimeter=orthogonalPerimeter;outlineConnect=0;targetShapes=umlLifeline;portConstraint=eastwest;newEdgeStyle={&quot;edgeStyle&quot;:&quot;elbowEdgeStyle&quot;,&quot;elbow&quot;:&quot;vertical&quot;,&quot;curved&quot;:0,&quot;rounded&quot;:0};fontColor=light-dark(#000000,#FFFFFF);" vertex="1" parent="E8dHR4l544DE4IYsOj5R-147">
          <mxGeometry x="45" y="160" width="10" height="350" as="geometry" />
        </mxCell>
        <mxCell id="E8dHR4l544DE4IYsOj5R-149" value="return fine lavorazione" style="html=1;verticalAlign=bottom;endArrow=open;dashed=1;endSize=8;edgeStyle=elbowEdgeStyle;elbow=vertical;curved=0;rounded=0;fontColor=light-dark(#000000,#FFFFFF);" edge="1" parent="1" source="E8dHR4l544DE4IYsOj5R-158" target="E8dHR4l544DE4IYsOj5R-148">
          <mxGeometry relative="1" as="geometry">
            <mxPoint x="3590" y="1657" as="targetPoint" />
            <Array as="points">
              <mxPoint x="3660" y="1657" />
              <mxPoint x="3330" y="1637" />
              <mxPoint x="3452" y="1557" />
            </Array>
            <mxPoint x="3520" y="1557" as="sourcePoint" />
            <mxPoint as="offset" />
          </mxGeometry>
        </mxCell>
        <mxCell id="E8dHR4l544DE4IYsOj5R-150" value="Lavorazione capi (ASCIUGATURA)" style="shape=umlFrame;whiteSpace=wrap;html=1;pointerEvents=0;recursiveResize=0;container=0;collapsible=0;width=160;fontColor=light-dark(#000000,#FFFFFF);" vertex="1" parent="1">
          <mxGeometry x="2820" y="1067" width="1250" height="660" as="geometry" />
        </mxCell>
        <mxCell id="E8dHR4l544DE4IYsOj5R-151" value="Operatore" style="shape=umlActor;verticalLabelPosition=bottom;verticalAlign=top;html=1;outlineConnect=0;fontColor=light-dark(#000000,#FFFFFF);" vertex="1" parent="1">
          <mxGeometry x="2930" y="1137" width="30" height="60" as="geometry" />
        </mxCell>
        <mxCell id="E8dHR4l544DE4IYsOj5R-152" value="" style="endArrow=none;dashed=1;html=1;rounded=0;fontColor=light-dark(#000000,#FFFFFF);" edge="1" parent="1" source="E8dHR4l544DE4IYsOj5R-154">
          <mxGeometry width="50" height="50" relative="1" as="geometry">
            <mxPoint x="2944.7200000000003" y="1477" as="sourcePoint" />
            <mxPoint x="2945" y="1217" as="targetPoint" />
          </mxGeometry>
        </mxCell>
        <mxCell id="E8dHR4l544DE4IYsOj5R-153" value="" style="endArrow=none;dashed=1;html=1;rounded=0;fontColor=light-dark(#000000,#FFFFFF);" edge="1" parent="1" target="E8dHR4l544DE4IYsOj5R-154">
          <mxGeometry width="50" height="50" relative="1" as="geometry">
            <mxPoint x="2945" y="1327" as="sourcePoint" />
            <mxPoint x="2944.7200000000003" y="1227" as="targetPoint" />
          </mxGeometry>
        </mxCell>
        <mxCell id="E8dHR4l544DE4IYsOj5R-154" value="" style="html=1;points=[];perimeter=orthogonalPerimeter;outlineConnect=0;targetShapes=umlLifeline;portConstraint=eastwest;newEdgeStyle={&quot;edgeStyle&quot;:&quot;elbowEdgeStyle&quot;,&quot;elbow&quot;:&quot;vertical&quot;,&quot;curved&quot;:0,&quot;rounded&quot;:0};fontColor=light-dark(#000000,#FFFFFF);" vertex="1" parent="1">
          <mxGeometry x="2940" y="1247" width="10" height="50" as="geometry" />
        </mxCell>
        <mxCell id="E8dHR4l544DE4IYsOj5R-155" value="azioneAvvioProcesso()" style="html=1;verticalAlign=bottom;endArrow=block;edgeStyle=elbowEdgeStyle;elbow=vertical;curved=0;rounded=0;fontColor=light-dark(#000000,#FFFFFF);" edge="1" parent="1" target="E8dHR4l544DE4IYsOj5R-146">
          <mxGeometry relative="1" as="geometry">
            <mxPoint x="2950" y="1267" as="sourcePoint" />
            <Array as="points">
              <mxPoint x="3035" y="1267" />
            </Array>
            <mxPoint x="3120" y="1267" as="targetPoint" />
            <mxPoint as="offset" />
          </mxGeometry>
        </mxCell>
        <mxCell id="E8dHR4l544DE4IYsOj5R-156" value="checkStatoStazione()" style="html=1;verticalAlign=bottom;endArrow=block;edgeStyle=elbowEdgeStyle;elbow=vertical;curved=0;rounded=0;fontColor=light-dark(#000000,#FFFFFF);" edge="1" parent="1">
          <mxGeometry relative="1" as="geometry">
            <mxPoint x="3235" y="1357" as="sourcePoint" />
            <Array as="points">
              <mxPoint x="3515" y="1357" />
              <mxPoint x="3600" y="1391.58" />
              <mxPoint x="3520" y="1301.58" />
            </Array>
            <mxPoint x="3525" y="1357" as="targetPoint" />
            <mxPoint as="offset" />
          </mxGeometry>
        </mxCell>
        <mxCell id="E8dHR4l544DE4IYsOj5R-157" value="s1 : StazioneAsciugatura" style="shape=umlLifeline;perimeter=lifelinePerimeter;whiteSpace=wrap;html=1;container=0;dropTarget=0;collapsible=0;recursiveResize=0;outlineConnect=0;portConstraint=eastwest;newEdgeStyle={&quot;edgeStyle&quot;:&quot;elbowEdgeStyle&quot;,&quot;elbow&quot;:&quot;vertical&quot;,&quot;curved&quot;:0,&quot;rounded&quot;:0};fontColor=light-dark(#000000,#FFFFFF);" vertex="1" parent="1">
          <mxGeometry x="3730" y="1177" width="100" height="520" as="geometry" />
        </mxCell>
        <mxCell id="E8dHR4l544DE4IYsOj5R-158" value="" style="html=1;points=[];perimeter=orthogonalPerimeter;outlineConnect=0;targetShapes=umlLifeline;portConstraint=eastwest;newEdgeStyle={&quot;edgeStyle&quot;:&quot;elbowEdgeStyle&quot;,&quot;elbow&quot;:&quot;vertical&quot;,&quot;curved&quot;:0,&quot;rounded&quot;:0};fontColor=light-dark(#000000,#FFFFFF);" vertex="1" parent="E8dHR4l544DE4IYsOj5R-157">
          <mxGeometry x="45" y="210" width="10" height="280" as="geometry" />
        </mxCell>
        <mxCell id="E8dHR4l544DE4IYsOj5R-159" value="CONTROLLER&lt;br&gt;DI CASO D&#39;USO" style="text;html=1;align=center;verticalAlign=middle;resizable=0;points=[];autosize=1;strokeColor=none;fillColor=none;fontColor=light-dark(#000000,#FFFFFF);" vertex="1" parent="1">
          <mxGeometry x="3475" y="1130" width="110" height="40" as="geometry" />
        </mxCell>
        <mxCell id="E8dHR4l544DE4IYsOj5R-160" value="setStato(statoStazione.WORKING)" style="html=1;verticalAlign=bottom;endArrow=block;edgeStyle=elbowEdgeStyle;elbow=vertical;curved=0;rounded=0;fontColor=light-dark(#000000,#FFFFFF);" edge="1" parent="1" source="E8dHR4l544DE4IYsOj5R-148" target="E8dHR4l544DE4IYsOj5R-158">
          <mxGeometry relative="1" as="geometry">
            <mxPoint x="3560" y="1437" as="sourcePoint" />
            <Array as="points">
              <mxPoint x="3690" y="1407" />
              <mxPoint x="3730" y="1437" />
              <mxPoint x="3883" y="1471.4099999999999" />
              <mxPoint x="3803" y="1381.4099999999999" />
            </Array>
            <mxPoint x="3723" y="1436.83" as="targetPoint" />
            <mxPoint as="offset" />
          </mxGeometry>
        </mxCell>
        <mxCell id="E8dHR4l544DE4IYsOj5R-161" value="possibile inserimento di un login&lt;br&gt;per l&#39;operatore così che veda&lt;br&gt;solo la stazione a cui è stato&lt;br&gt;assegnato" style="text;html=1;align=center;verticalAlign=middle;resizable=0;points=[];autosize=1;strokeColor=none;fillColor=none;" vertex="1" parent="1">
          <mxGeometry x="2990" y="1287" width="190" height="70" as="geometry" />
        </mxCell>
        <mxCell id="E8dHR4l544DE4IYsOj5R-162" value="setStato(statoStazione.READY)" style="html=1;verticalAlign=bottom;endArrow=block;edgeStyle=elbowEdgeStyle;elbow=vertical;curved=0;rounded=0;fontColor=light-dark(#000000,#FFFFFF);" edge="1" parent="1" source="E8dHR4l544DE4IYsOj5R-148" target="E8dHR4l544DE4IYsOj5R-158">
          <mxGeometry relative="1" as="geometry">
            <mxPoint x="3540" y="1517" as="sourcePoint" />
            <Array as="points">
              <mxPoint x="3695" y="1517" />
              <mxPoint x="3735" y="1547" />
              <mxPoint x="3888" y="1581.4099999999999" />
              <mxPoint x="3808" y="1491.4099999999999" />
            </Array>
            <mxPoint x="3760" y="1517" as="targetPoint" />
            <mxPoint as="offset" />
          </mxGeometry>
        </mxCell>
        <mxCell id="E8dHR4l544DE4IYsOj5R-163" value="moveToNextStazione()" style="html=1;verticalAlign=bottom;endArrow=block;edgeStyle=elbowEdgeStyle;elbow=vertical;curved=0;rounded=0;fontColor=light-dark(#000000,#FFFFFF);" edge="1" parent="1" source="E8dHR4l544DE4IYsOj5R-146" target="E8dHR4l544DE4IYsOj5R-148">
          <mxGeometry relative="1" as="geometry">
            <mxPoint x="3240" y="1557" as="sourcePoint" />
            <Array as="points">
              <mxPoint x="3520" y="1557" />
              <mxPoint x="3605" y="1591.58" />
              <mxPoint x="3525" y="1501.58" />
            </Array>
            <mxPoint x="3510" y="1557" as="targetPoint" />
            <mxPoint as="offset" />
          </mxGeometry>
        </mxCell>
        <mxCell id="E8dHR4l544DE4IYsOj5R-164" value="s2 : StazioneStiratura" style="shape=umlLifeline;perimeter=lifelinePerimeter;whiteSpace=wrap;html=1;container=0;dropTarget=0;collapsible=0;recursiveResize=0;outlineConnect=0;portConstraint=eastwest;newEdgeStyle={&quot;edgeStyle&quot;:&quot;elbowEdgeStyle&quot;,&quot;elbow&quot;:&quot;vertical&quot;,&quot;curved&quot;:0,&quot;rounded&quot;:0};fontColor=light-dark(#000000,#FFFFFF);" vertex="1" parent="1">
          <mxGeometry x="3920" y="1177" width="100" height="480" as="geometry" />
        </mxCell>
        <mxCell id="E8dHR4l544DE4IYsOj5R-165" value="" style="html=1;points=[];perimeter=orthogonalPerimeter;outlineConnect=0;targetShapes=umlLifeline;portConstraint=eastwest;newEdgeStyle={&quot;edgeStyle&quot;:&quot;elbowEdgeStyle&quot;,&quot;elbow&quot;:&quot;vertical&quot;,&quot;curved&quot;:0,&quot;rounded&quot;:0};fontColor=light-dark(#000000,#FFFFFF);" vertex="1" parent="E8dHR4l544DE4IYsOj5R-164">
          <mxGeometry x="45" y="380" width="10" height="70" as="geometry" />
        </mxCell>
        <mxCell id="E8dHR4l544DE4IYsOj5R-166" value="capo = removeCapo()" style="html=1;verticalAlign=bottom;endArrow=block;edgeStyle=elbowEdgeStyle;elbow=vertical;curved=0;rounded=0;fontColor=light-dark(#000000,#FFFFFF);" edge="1" parent="1" source="E8dHR4l544DE4IYsOj5R-148" target="E8dHR4l544DE4IYsOj5R-158">
          <mxGeometry relative="1" as="geometry">
            <mxPoint x="3540" y="1587" as="sourcePoint" />
            <Array as="points">
              <mxPoint x="3730" y="1587" />
              <mxPoint x="3710" y="1567" />
              <mxPoint x="3695" y="1587" />
              <mxPoint x="3735" y="1617" />
              <mxPoint x="3888" y="1651.4099999999999" />
              <mxPoint x="3808" y="1561.4099999999999" />
            </Array>
            <mxPoint x="3740" y="1587" as="targetPoint" />
            <mxPoint as="offset" />
          </mxGeometry>
        </mxCell>
        <mxCell id="E8dHR4l544DE4IYsOj5R-167" value="addCapo(capo)" style="html=1;verticalAlign=bottom;endArrow=block;edgeStyle=elbowEdgeStyle;elbow=vertical;curved=0;rounded=0;fontColor=light-dark(#000000,#FFFFFF);" edge="1" parent="1" source="E8dHR4l544DE4IYsOj5R-148" target="E8dHR4l544DE4IYsOj5R-165">
          <mxGeometry relative="1" as="geometry">
            <mxPoint x="3540" y="1597" as="sourcePoint" />
            <Array as="points">
              <mxPoint x="3860" y="1617" />
              <mxPoint x="3715" y="1597" />
              <mxPoint x="3700" y="1617" />
              <mxPoint x="3740" y="1647" />
              <mxPoint x="3893" y="1681.4099999999999" />
              <mxPoint x="3813" y="1591.4099999999999" />
            </Array>
            <mxPoint x="3780" y="1597" as="targetPoint" />
            <mxPoint as="offset" />
          </mxGeometry>
        </mxCell>
        <mxCell id="E8dHR4l544DE4IYsOj5R-168" value="loop" style="shape=umlFrame;whiteSpace=wrap;html=1;pointerEvents=0;recursiveResize=0;container=1;collapsible=0;width=60;height=20;fontColor=light-dark(#000000,#FFFFFF);" vertex="1" parent="1">
          <mxGeometry x="3450" y="1567" width="540" height="60" as="geometry" />
        </mxCell>
        <mxCell id="E8dHR4l544DE4IYsOj5R-169" value="[numCapi &amp;lt; n]" style="text;html=1;align=center;verticalAlign=middle;resizable=0;points=[];autosize=1;strokeColor=none;fillColor=none;fontColor=light-dark(#000000,#FFFFFF);fontSize=10;" vertex="1" parent="E8dHR4l544DE4IYsOj5R-168">
          <mxGeometry x="-10" y="20" width="90" height="30" as="geometry" />
        </mxCell>
        <mxCell id="E8dHR4l544DE4IYsOj5R-170" value="return segnalazione fine lavorazione" style="html=1;verticalAlign=bottom;endArrow=open;dashed=1;endSize=8;edgeStyle=elbowEdgeStyle;elbow=vertical;curved=0;rounded=0;fontColor=light-dark(#000000,#FFFFFF);" edge="1" parent="1" source="E8dHR4l544DE4IYsOj5R-148" target="E8dHR4l544DE4IYsOj5R-146">
          <mxGeometry x="0.0027" relative="1" as="geometry">
            <mxPoint x="3280" y="1667" as="targetPoint" />
            <Array as="points">
              <mxPoint x="3405" y="1667" />
              <mxPoint x="3075" y="1647" />
              <mxPoint x="3197" y="1567" />
            </Array>
            <mxPoint x="3520" y="1667" as="sourcePoint" />
            <mxPoint as="offset" />
          </mxGeometry>
        </mxCell>
        <mxCell id="E8dHR4l544DE4IYsOj5R-171" value="GESTIRE EVENTUALMENTE CAPI SENZA FASE&lt;br&gt;DI ASCIUGATURA CHE ANDRA&#39; AD AGGIUNGERE&lt;br&gt;UN DIAGRAMMA DI SEQUENZA PER SCENARIO ALTERNATIVO" style="text;html=1;align=center;verticalAlign=middle;resizable=0;points=[];autosize=1;strokeColor=none;fillColor=none;fontColor=light-dark(#000000,#00FF00);" vertex="1" parent="1">
          <mxGeometry x="1720" y="1320" width="380" height="60" as="geometry" />
        </mxCell>
        <mxCell id="E8dHR4l544DE4IYsOj5R-172" value="return segnalazione fine lavorazione" style="html=1;verticalAlign=bottom;endArrow=open;dashed=1;endSize=8;edgeStyle=elbowEdgeStyle;elbow=vertical;curved=0;rounded=0;fontColor=light-dark(#000000,#FFFFFF);" edge="1" parent="1" source="E8dHR4l544DE4IYsOj5R-40" target="E8dHR4l544DE4IYsOj5R-38">
          <mxGeometry relative="1" as="geometry">
            <mxPoint x="900" y="2490" as="targetPoint" />
            <Array as="points">
              <mxPoint x="870" y="2490" />
              <mxPoint x="1005" y="2480" />
              <mxPoint x="1025" y="2500" />
              <mxPoint x="975" y="2480" />
              <mxPoint x="695" y="2460" />
              <mxPoint x="817" y="2380" />
            </Array>
            <mxPoint x="1140" y="2490" as="sourcePoint" />
            <mxPoint as="offset" />
          </mxGeometry>
        </mxCell>
        <mxCell id="E8dHR4l544DE4IYsOj5R-173" value="VERSIONE OLD" style="text;html=1;align=center;verticalAlign=middle;resizable=0;points=[];autosize=1;strokeColor=none;fillColor=none;fontSize=20;" vertex="1" parent="1">
          <mxGeometry x="3300" y="230" width="170" height="40" as="geometry" />
        </mxCell>
        <mxCell id="E8dHR4l544DE4IYsOj5R-174" value="VERSIONE OLD 2" style="text;html=1;align=center;verticalAlign=middle;resizable=0;points=[];autosize=1;strokeColor=none;fillColor=none;fontSize=20;" vertex="1" parent="1">
          <mxGeometry x="5120" y="1757" width="190" height="40" as="geometry" />
        </mxCell>
        <mxCell id="E8dHR4l544DE4IYsOj5R-175" value="VERSIONE OLD 1" style="text;html=1;align=center;verticalAlign=middle;resizable=0;points=[];autosize=1;strokeColor=light-dark(#000000,#FF0000);fillColor=none;fontSize=20;" vertex="1" parent="1">
          <mxGeometry x="6875" y="1757" width="190" height="40" as="geometry" />
        </mxCell>
        <mxCell id="E8dHR4l544DE4IYsOj5R-78" value="[numCapi &amp;lt; n]" style="text;html=1;align=center;verticalAlign=middle;resizable=0;points=[];autosize=1;strokeColor=none;fillColor=none;fontColor=light-dark(#000000,#FFFFFF);fontSize=10;" vertex="1" parent="1">
          <mxGeometry x="1060" y="710" width="90" height="30" as="geometry" />
        </mxCell>
        <mxCell id="E8dHR4l544DE4IYsOj5R-71" value="" style="html=1;points=[];perimeter=orthogonalPerimeter;outlineConnect=0;targetShapes=umlLifeline;portConstraint=eastwest;newEdgeStyle={&quot;edgeStyle&quot;:&quot;elbowEdgeStyle&quot;,&quot;elbow&quot;:&quot;vertical&quot;,&quot;curved&quot;:0,&quot;rounded&quot;:0};fontColor=light-dark(#000000,#FFFFFF);" vertex="1" parent="1">
          <mxGeometry x="1585" y="715" width="10" height="40" as="geometry" />
        </mxCell>
        <mxCell id="HvNu41siJUzFplcwvGJl-4" value="&lt;font style=&quot;color: light-dark(rgb(0, 0, 0), rgb(255, 128, 0));&quot;&gt;l:GUI&lt;br&gt;Operatore x lavorazione&lt;/font&gt;" style="shape=umlLifeline;perimeter=lifelinePerimeter;whiteSpace=wrap;html=1;container=0;dropTarget=0;collapsible=0;recursiveResize=0;outlineConnect=0;portConstraint=eastwest;newEdgeStyle={&quot;edgeStyle&quot;:&quot;elbowEdgeStyle&quot;,&quot;elbow&quot;:&quot;vertical&quot;,&quot;curved&quot;:0,&quot;rounded&quot;:0};fontColor=light-dark(#000000,#FFFFFF);" vertex="1" parent="1">
          <mxGeometry x="800" y="1150" width="100" height="520" as="geometry" />
        </mxCell>
        <mxCell id="HvNu41siJUzFplcwvGJl-5" value="" style="html=1;points=[];perimeter=orthogonalPerimeter;outlineConnect=0;targetShapes=umlLifeline;portConstraint=eastwest;newEdgeStyle={&quot;edgeStyle&quot;:&quot;elbowEdgeStyle&quot;,&quot;elbow&quot;:&quot;vertical&quot;,&quot;curved&quot;:0,&quot;rounded&quot;:0};fontColor=light-dark(#000000,#FFFFFF);" vertex="1" parent="HvNu41siJUzFplcwvGJl-4">
          <mxGeometry x="45" y="70" width="10" height="440" as="geometry" />
        </mxCell>
        <mxCell id="HvNu41siJUzFplcwvGJl-6" value="&lt;font style=&quot;color: light-dark(rgb(0, 0, 0), rgb(255, 0, 0));&quot;&gt;c : CatenaLavorazione&lt;/font&gt;" style="shape=umlLifeline;perimeter=lifelinePerimeter;whiteSpace=wrap;html=1;container=0;dropTarget=0;collapsible=0;recursiveResize=0;outlineConnect=0;portConstraint=eastwest;newEdgeStyle={&quot;edgeStyle&quot;:&quot;elbowEdgeStyle&quot;,&quot;elbow&quot;:&quot;vertical&quot;,&quot;curved&quot;:0,&quot;rounded&quot;:0};fontColor=light-dark(#000000,#FFFFFF);" vertex="1" parent="1">
          <mxGeometry x="1100" y="1150" width="100" height="530" as="geometry" />
        </mxCell>
        <mxCell id="HvNu41siJUzFplcwvGJl-7" value="" style="html=1;points=[];perimeter=orthogonalPerimeter;outlineConnect=0;targetShapes=umlLifeline;portConstraint=eastwest;newEdgeStyle={&quot;edgeStyle&quot;:&quot;elbowEdgeStyle&quot;,&quot;elbow&quot;:&quot;vertical&quot;,&quot;curved&quot;:0,&quot;rounded&quot;:0};fontColor=light-dark(#000000,#FFFFFF);" vertex="1" parent="HvNu41siJUzFplcwvGJl-6">
          <mxGeometry x="45" y="160" width="10" height="350" as="geometry" />
        </mxCell>
        <mxCell id="HvNu41siJUzFplcwvGJl-8" value="" style="endArrow=classic;html=1;rounded=0;fontColor=light-dark(#000000,#FFFFFF);" edge="1" parent="HvNu41siJUzFplcwvGJl-6">
          <mxGeometry width="50" height="50" relative="1" as="geometry">
            <mxPoint x="55" y="270.0000000000001" as="sourcePoint" />
            <mxPoint x="55" y="280.0000000000001" as="targetPoint" />
            <Array as="points">
              <mxPoint x="80" y="270" />
              <mxPoint x="80" y="280" />
            </Array>
          </mxGeometry>
        </mxCell>
        <mxCell id="HvNu41siJUzFplcwvGJl-9" value="moveToNextStazione()" style="edgeLabel;html=1;align=center;verticalAlign=middle;resizable=0;points=[];fontColor=light-dark(#000000,#FFFFFF);" connectable="0" vertex="1" parent="HvNu41siJUzFplcwvGJl-8">
          <mxGeometry x="-0.0071" y="-1" relative="1" as="geometry">
            <mxPoint x="57" as="offset" />
          </mxGeometry>
        </mxCell>
        <mxCell id="HvNu41siJUzFplcwvGJl-10" value="return fine lavorazione" style="html=1;verticalAlign=bottom;endArrow=open;dashed=1;endSize=8;edgeStyle=elbowEdgeStyle;elbow=vertical;curved=0;rounded=0;fontColor=light-dark(#000000,#FFFFFF);" edge="1" parent="1" source="HvNu41siJUzFplcwvGJl-19" target="HvNu41siJUzFplcwvGJl-7">
          <mxGeometry relative="1" as="geometry">
            <mxPoint x="1210" y="1630" as="targetPoint" />
            <Array as="points">
              <mxPoint x="1280" y="1630" />
              <mxPoint x="950" y="1610" />
              <mxPoint x="1072" y="1530" />
            </Array>
            <mxPoint x="1140" y="1530" as="sourcePoint" />
            <mxPoint as="offset" />
          </mxGeometry>
        </mxCell>
        <mxCell id="HvNu41siJUzFplcwvGJl-11" value="Lavorazione capi (ASCIUGATURA)" style="shape=umlFrame;whiteSpace=wrap;html=1;pointerEvents=0;recursiveResize=0;container=0;collapsible=0;width=160;fontColor=light-dark(#000000,#FFFFFF);" vertex="1" parent="1">
          <mxGeometry x="440" y="1040" width="1250" height="720" as="geometry" />
        </mxCell>
        <mxCell id="HvNu41siJUzFplcwvGJl-12" value="Operatore" style="shape=umlActor;verticalLabelPosition=bottom;verticalAlign=top;html=1;outlineConnect=0;fontColor=light-dark(#000000,#FFFFFF);" vertex="1" parent="1">
          <mxGeometry x="550" y="1110" width="30" height="60" as="geometry" />
        </mxCell>
        <mxCell id="HvNu41siJUzFplcwvGJl-13" value="" style="endArrow=none;dashed=1;html=1;rounded=0;fontColor=light-dark(#000000,#FFFFFF);" edge="1" parent="1" source="HvNu41siJUzFplcwvGJl-15">
          <mxGeometry width="50" height="50" relative="1" as="geometry">
            <mxPoint x="564.72" y="1450" as="sourcePoint" />
            <mxPoint x="565" y="1190" as="targetPoint" />
          </mxGeometry>
        </mxCell>
        <mxCell id="HvNu41siJUzFplcwvGJl-14" value="" style="endArrow=none;dashed=1;html=1;rounded=0;fontColor=light-dark(#000000,#FFFFFF);" edge="1" parent="1" target="HvNu41siJUzFplcwvGJl-15">
          <mxGeometry width="50" height="50" relative="1" as="geometry">
            <mxPoint x="565" y="1700" as="sourcePoint" />
            <mxPoint x="564.72" y="1200" as="targetPoint" />
          </mxGeometry>
        </mxCell>
        <mxCell id="HvNu41siJUzFplcwvGJl-15" value="" style="html=1;points=[];perimeter=orthogonalPerimeter;outlineConnect=0;targetShapes=umlLifeline;portConstraint=eastwest;newEdgeStyle={&quot;edgeStyle&quot;:&quot;elbowEdgeStyle&quot;,&quot;elbow&quot;:&quot;vertical&quot;,&quot;curved&quot;:0,&quot;rounded&quot;:0};fontColor=light-dark(#000000,#FFFFFF);" vertex="1" parent="1">
          <mxGeometry x="560" y="1220" width="10" height="460" as="geometry" />
        </mxCell>
        <mxCell id="HvNu41siJUzFplcwvGJl-16" value="azioneAvvioProcesso()" style="html=1;verticalAlign=bottom;endArrow=block;edgeStyle=elbowEdgeStyle;elbow=vertical;curved=0;rounded=0;fontColor=light-dark(#000000,#FFFFFF);" edge="1" parent="1" target="HvNu41siJUzFplcwvGJl-5">
          <mxGeometry relative="1" as="geometry">
            <mxPoint x="570" y="1240" as="sourcePoint" />
            <Array as="points">
              <mxPoint x="655" y="1240" />
            </Array>
            <mxPoint x="740" y="1240" as="targetPoint" />
            <mxPoint as="offset" />
          </mxGeometry>
        </mxCell>
        <mxCell id="HvNu41siJUzFplcwvGJl-17" value="checkStatoStazione()" style="html=1;verticalAlign=bottom;endArrow=block;edgeStyle=elbowEdgeStyle;elbow=vertical;curved=0;rounded=0;fontColor=light-dark(#000000,#FFFFFF);" edge="1" parent="1">
          <mxGeometry relative="1" as="geometry">
            <mxPoint x="855" y="1330" as="sourcePoint" />
            <Array as="points">
              <mxPoint x="1135" y="1330" />
              <mxPoint x="1220" y="1364.58" />
              <mxPoint x="1140" y="1274.58" />
            </Array>
            <mxPoint x="1145" y="1330" as="targetPoint" />
            <mxPoint as="offset" />
          </mxGeometry>
        </mxCell>
        <mxCell id="HvNu41siJUzFplcwvGJl-18" value="&lt;font style=&quot;color: light-dark(rgb(0, 0, 0), rgb(255, 255, 255));&quot;&gt;s2 : StazioneAsciugatura&lt;/font&gt;" style="shape=umlLifeline;perimeter=lifelinePerimeter;whiteSpace=wrap;html=1;container=0;dropTarget=0;collapsible=0;recursiveResize=0;outlineConnect=0;portConstraint=eastwest;newEdgeStyle={&quot;edgeStyle&quot;:&quot;elbowEdgeStyle&quot;,&quot;elbow&quot;:&quot;vertical&quot;,&quot;curved&quot;:0,&quot;rounded&quot;:0};fontColor=light-dark(#000000,#FFFFFF);" vertex="1" parent="1">
          <mxGeometry x="1350" y="1150" width="100" height="520" as="geometry" />
        </mxCell>
        <mxCell id="HvNu41siJUzFplcwvGJl-19" value="" style="html=1;points=[];perimeter=orthogonalPerimeter;outlineConnect=0;targetShapes=umlLifeline;portConstraint=eastwest;newEdgeStyle={&quot;edgeStyle&quot;:&quot;elbowEdgeStyle&quot;,&quot;elbow&quot;:&quot;vertical&quot;,&quot;curved&quot;:0,&quot;rounded&quot;:0};fontColor=light-dark(#000000,#FFFFFF);" vertex="1" parent="HvNu41siJUzFplcwvGJl-18">
          <mxGeometry x="45" y="210" width="10" height="280" as="geometry" />
        </mxCell>
        <mxCell id="HvNu41siJUzFplcwvGJl-20" value="CONTROLLER&lt;br&gt;DI CASO D&#39;USO" style="text;html=1;align=center;verticalAlign=middle;resizable=0;points=[];autosize=1;strokeColor=none;fillColor=none;fontColor=light-dark(#000000,#FFFFFF);" vertex="1" parent="1">
          <mxGeometry x="1095" y="1103" width="110" height="40" as="geometry" />
        </mxCell>
        <mxCell id="HvNu41siJUzFplcwvGJl-21" value="setStato(statoStazione.WORKING)" style="html=1;verticalAlign=bottom;endArrow=block;edgeStyle=elbowEdgeStyle;elbow=vertical;curved=0;rounded=0;fontColor=light-dark(#000000,#FFFFFF);" edge="1" parent="1" source="HvNu41siJUzFplcwvGJl-7" target="HvNu41siJUzFplcwvGJl-19">
          <mxGeometry relative="1" as="geometry">
            <mxPoint x="1180" y="1410" as="sourcePoint" />
            <Array as="points">
              <mxPoint x="1310" y="1380" />
              <mxPoint x="1350" y="1410" />
              <mxPoint x="1503" y="1444.4099999999999" />
              <mxPoint x="1423" y="1354.4099999999999" />
            </Array>
            <mxPoint x="1343" y="1409.83" as="targetPoint" />
            <mxPoint as="offset" />
          </mxGeometry>
        </mxCell>
        <mxCell id="HvNu41siJUzFplcwvGJl-22" value="possibile inserimento di un login&lt;br&gt;per l&#39;operatore così che veda&lt;br&gt;solo la stazione a cui è stato&lt;br&gt;assegnato" style="text;html=1;align=center;verticalAlign=middle;resizable=0;points=[];autosize=1;strokeColor=none;fillColor=none;" vertex="1" parent="1">
          <mxGeometry x="610" y="1260" width="190" height="70" as="geometry" />
        </mxCell>
        <mxCell id="HvNu41siJUzFplcwvGJl-23" value="setStato(statoStazione.READY)" style="html=1;verticalAlign=bottom;endArrow=block;edgeStyle=elbowEdgeStyle;elbow=vertical;curved=0;rounded=0;fontColor=light-dark(#000000,#FFFFFF);" edge="1" parent="1" source="HvNu41siJUzFplcwvGJl-7" target="HvNu41siJUzFplcwvGJl-19">
          <mxGeometry relative="1" as="geometry">
            <mxPoint x="1160" y="1580" as="sourcePoint" />
            <Array as="points">
              <mxPoint x="1340" y="1580" />
              <mxPoint x="1325" y="1620" />
              <mxPoint x="1365" y="1650" />
              <mxPoint x="1518" y="1684.4099999999999" />
              <mxPoint x="1438" y="1594.4099999999999" />
            </Array>
            <mxPoint x="1380" y="1580" as="targetPoint" />
            <mxPoint as="offset" />
          </mxGeometry>
        </mxCell>
        <mxCell id="HvNu41siJUzFplcwvGJl-24" value="s3 : StazioneStiratura" style="shape=umlLifeline;perimeter=lifelinePerimeter;whiteSpace=wrap;html=1;container=0;dropTarget=0;collapsible=0;recursiveResize=0;outlineConnect=0;portConstraint=eastwest;newEdgeStyle={&quot;edgeStyle&quot;:&quot;elbowEdgeStyle&quot;,&quot;elbow&quot;:&quot;vertical&quot;,&quot;curved&quot;:0,&quot;rounded&quot;:0};fontColor=light-dark(#000000,#FFFFFF);" vertex="1" parent="1">
          <mxGeometry x="1540" y="1150" width="100" height="390" as="geometry" />
        </mxCell>
        <mxCell id="HvNu41siJUzFplcwvGJl-25" value="capo = removeCapo()" style="html=1;verticalAlign=bottom;endArrow=block;edgeStyle=elbowEdgeStyle;elbow=vertical;curved=0;rounded=0;fontColor=light-dark(#000000,#FFFFFF);" edge="1" parent="1" target="HvNu41siJUzFplcwvGJl-19">
          <mxGeometry relative="1" as="geometry">
            <mxPoint x="1155" y="1490" as="sourcePoint" />
            <Array as="points">
              <mxPoint x="1350" y="1490" />
              <mxPoint x="1330" y="1470" />
              <mxPoint x="1315" y="1490" />
              <mxPoint x="1355" y="1520" />
              <mxPoint x="1508" y="1554.4099999999999" />
              <mxPoint x="1428" y="1464.4099999999999" />
            </Array>
            <mxPoint x="1370" y="1490" as="targetPoint" />
            <mxPoint as="offset" />
          </mxGeometry>
        </mxCell>
        <mxCell id="HvNu41siJUzFplcwvGJl-26" value="addCapo(capo)" style="html=1;verticalAlign=bottom;endArrow=block;edgeStyle=elbowEdgeStyle;elbow=vertical;curved=0;rounded=0;fontColor=light-dark(#000000,#FFFFFF);" edge="1" parent="1" source="HvNu41siJUzFplcwvGJl-7">
          <mxGeometry x="0.0021" relative="1" as="geometry">
            <mxPoint x="1155" y="1520" as="sourcePoint" />
            <Array as="points">
              <mxPoint x="1480" y="1520" />
              <mxPoint x="1335" y="1500" />
              <mxPoint x="1320" y="1520" />
              <mxPoint x="1360" y="1550" />
              <mxPoint x="1513" y="1584.4099999999999" />
              <mxPoint x="1433" y="1494.4099999999999" />
            </Array>
            <mxPoint x="1585" y="1520" as="targetPoint" />
            <mxPoint as="offset" />
          </mxGeometry>
        </mxCell>
        <mxCell id="HvNu41siJUzFplcwvGJl-27" value="loop" style="shape=umlFrame;whiteSpace=wrap;html=1;pointerEvents=0;recursiveResize=0;container=0;collapsible=0;width=60;height=20;fontColor=light-dark(#000000,#FFFFFF);" vertex="1" parent="1">
          <mxGeometry x="1070" y="1470" width="540" height="80" as="geometry" />
        </mxCell>
        <mxCell id="HvNu41siJUzFplcwvGJl-28" value="return segnalazione fine lavorazione" style="html=1;verticalAlign=bottom;endArrow=open;dashed=1;endSize=8;edgeStyle=elbowEdgeStyle;elbow=vertical;curved=0;rounded=0;fontColor=light-dark(#000000,#FFFFFF);" edge="1" parent="1" source="HvNu41siJUzFplcwvGJl-7" target="HvNu41siJUzFplcwvGJl-5">
          <mxGeometry x="0.0027" relative="1" as="geometry">
            <mxPoint x="900" y="1640" as="targetPoint" />
            <Array as="points">
              <mxPoint x="1025" y="1640" />
              <mxPoint x="695" y="1620" />
              <mxPoint x="817" y="1540" />
            </Array>
            <mxPoint x="1140" y="1640" as="sourcePoint" />
            <mxPoint as="offset" />
          </mxGeometry>
        </mxCell>
        <mxCell id="HvNu41siJUzFplcwvGJl-29" value="[numCapi &amp;lt; n]" style="text;html=1;align=center;verticalAlign=middle;resizable=0;points=[];autosize=1;strokeColor=none;fillColor=none;fontColor=light-dark(#000000,#FFFFFF);fontSize=10;" vertex="1" parent="1">
          <mxGeometry x="1060" y="1490" width="90" height="30" as="geometry" />
        </mxCell>
        <mxCell id="HvNu41siJUzFplcwvGJl-30" value="" style="html=1;points=[];perimeter=orthogonalPerimeter;outlineConnect=0;targetShapes=umlLifeline;portConstraint=eastwest;newEdgeStyle={&quot;edgeStyle&quot;:&quot;elbowEdgeStyle&quot;,&quot;elbow&quot;:&quot;vertical&quot;,&quot;curved&quot;:0,&quot;rounded&quot;:0};fontColor=light-dark(#000000,#FFFFFF);" vertex="1" parent="1">
          <mxGeometry x="1585" y="1495" width="10" height="40" as="geometry" />
        </mxCell>
        <mxCell id="HvNu41siJUzFplcwvGJl-34" value="opt" style="shape=umlFrame;whiteSpace=wrap;html=1;pointerEvents=0;recursiveResize=0;container=0;collapsible=0;width=60;height=20;fontColor=light-dark(#000000,#FFFFFF);strokeColor=light-dark(#000000,#FFFF00);" vertex="1" parent="1">
          <mxGeometry x="1010" y="1460" width="610" height="100" as="geometry" />
        </mxCell>
        <mxCell id="HvNu41siJUzFplcwvGJl-35" value="checkStiratura" style="text;html=1;align=center;verticalAlign=middle;resizable=0;points=[];autosize=1;strokeColor=none;fillColor=none;fontSize=7;" vertex="1" parent="1">
          <mxGeometry x="1000" y="1475" width="70" height="20" as="geometry" />
        </mxCell>
        <mxCell id="HvNu41siJUzFplcwvGJl-41" value="&lt;font style=&quot;color: light-dark(rgb(0, 0, 0), rgb(255, 255, 0));&quot;&gt;AGGIUNTO OPERATORE opt PER POTER GESTIRE IL CASO IN CUI I CAPI &lt;br&gt;NON DOVESSERO AVERE LA FASE DI STIRATURA&lt;br&gt;A SECONDA DEL TIPOLAVAGGIO DEI CAPI&lt;/font&gt;" style="text;html=1;align=center;verticalAlign=middle;resizable=0;points=[];autosize=1;strokeColor=none;fillColor=none;" vertex="1" parent="1">
          <mxGeometry x="1720" y="1460" width="440" height="60" as="geometry" />
        </mxCell>
        <mxCell id="HvNu41siJUzFplcwvGJl-42" value="PROVARE A METTERE I 3 DIAGRAMMI INSIEME" style="text;html=1;align=center;verticalAlign=middle;resizable=0;points=[];autosize=1;strokeColor=none;fillColor=none;fontSize=30;" vertex="1" parent="1">
          <mxGeometry x="810" y="2650" width="700" height="50" as="geometry" />
        </mxCell>
        <mxCell id="W6FVTwmzzRBTOz6BkEIq-1" value="&lt;font style=&quot;&quot;&gt;l:GUI&lt;br&gt;Operatore x lavorazione&lt;/font&gt;" style="shape=umlLifeline;perimeter=lifelinePerimeter;whiteSpace=wrap;html=1;container=0;dropTarget=0;collapsible=0;recursiveResize=0;outlineConnect=0;portConstraint=eastwest;newEdgeStyle={&quot;edgeStyle&quot;:&quot;elbowEdgeStyle&quot;,&quot;elbow&quot;:&quot;vertical&quot;,&quot;curved&quot;:0,&quot;rounded&quot;:0};fontColor=light-dark(#000000,#FF0000);" vertex="1" parent="1">
          <mxGeometry x="590" y="3020" width="100" height="740" as="geometry" />
        </mxCell>
        <mxCell id="W6FVTwmzzRBTOz6BkEIq-2" value="" style="html=1;points=[];perimeter=orthogonalPerimeter;outlineConnect=0;targetShapes=umlLifeline;portConstraint=eastwest;newEdgeStyle={&quot;edgeStyle&quot;:&quot;elbowEdgeStyle&quot;,&quot;elbow&quot;:&quot;vertical&quot;,&quot;curved&quot;:0,&quot;rounded&quot;:0};fontColor=light-dark(#000000,#FF0000);" vertex="1" parent="W6FVTwmzzRBTOz6BkEIq-1">
          <mxGeometry x="45" y="70" width="10" height="640" as="geometry" />
        </mxCell>
        <mxCell id="W6FVTwmzzRBTOz6BkEIq-3" value="&lt;font style=&quot;&quot;&gt;c : CatenaLavorazione&lt;/font&gt;" style="shape=umlLifeline;perimeter=lifelinePerimeter;whiteSpace=wrap;html=1;container=0;dropTarget=0;collapsible=0;recursiveResize=0;outlineConnect=0;portConstraint=eastwest;newEdgeStyle={&quot;edgeStyle&quot;:&quot;elbowEdgeStyle&quot;,&quot;elbow&quot;:&quot;vertical&quot;,&quot;curved&quot;:0,&quot;rounded&quot;:0};fontColor=light-dark(#000000,#FF0000);" vertex="1" parent="1">
          <mxGeometry x="890" y="3020" width="100" height="710" as="geometry" />
        </mxCell>
        <mxCell id="W6FVTwmzzRBTOz6BkEIq-4" value="" style="html=1;points=[];perimeter=orthogonalPerimeter;outlineConnect=0;targetShapes=umlLifeline;portConstraint=eastwest;newEdgeStyle={&quot;edgeStyle&quot;:&quot;elbowEdgeStyle&quot;,&quot;elbow&quot;:&quot;vertical&quot;,&quot;curved&quot;:0,&quot;rounded&quot;:0};fontColor=light-dark(#000000,#FF0000);" vertex="1" parent="W6FVTwmzzRBTOz6BkEIq-3">
          <mxGeometry x="45" y="160" width="10" height="540" as="geometry" />
        </mxCell>
        <mxCell id="W6FVTwmzzRBTOz6BkEIq-5" value="" style="endArrow=classic;html=1;rounded=0;fontColor=light-dark(#000000,#FF0000);" edge="1" parent="W6FVTwmzzRBTOz6BkEIq-3">
          <mxGeometry width="50" height="50" relative="1" as="geometry">
            <mxPoint x="55" y="270.0000000000001" as="sourcePoint" />
            <mxPoint x="55" y="280.0000000000001" as="targetPoint" />
            <Array as="points">
              <mxPoint x="80" y="270" />
              <mxPoint x="80" y="280" />
            </Array>
          </mxGeometry>
        </mxCell>
        <mxCell id="W6FVTwmzzRBTOz6BkEIq-6" value="moveToNextStazione()" style="edgeLabel;html=1;align=center;verticalAlign=middle;resizable=0;points=[];fontColor=light-dark(#000000,#FF0000);" connectable="0" vertex="1" parent="W6FVTwmzzRBTOz6BkEIq-5">
          <mxGeometry x="-0.0071" y="-1" relative="1" as="geometry">
            <mxPoint x="57" as="offset" />
          </mxGeometry>
        </mxCell>
        <mxCell id="W6FVTwmzzRBTOz6BkEIq-7" value="return fine lavorazione" style="html=1;verticalAlign=bottom;endArrow=open;dashed=1;endSize=8;edgeStyle=elbowEdgeStyle;elbow=vertical;curved=0;rounded=0;fontColor=light-dark(#000000,#FF0000);" edge="1" parent="1" source="W6FVTwmzzRBTOz6BkEIq-16" target="W6FVTwmzzRBTOz6BkEIq-4">
          <mxGeometry relative="1" as="geometry">
            <mxPoint x="1000" y="3500" as="targetPoint" />
            <Array as="points">
              <mxPoint x="1070" y="3500" />
              <mxPoint x="740" y="3480" />
              <mxPoint x="862" y="3400" />
            </Array>
            <mxPoint x="930" y="3400" as="sourcePoint" />
            <mxPoint as="offset" />
          </mxGeometry>
        </mxCell>
        <mxCell id="W6FVTwmzzRBTOz6BkEIq-8" value="Lavorazione capi (LAVAGGIO)" style="shape=umlFrame;whiteSpace=wrap;html=1;pointerEvents=0;recursiveResize=0;container=0;collapsible=0;width=160;fontColor=light-dark(#000000,#FF0000);" vertex="1" parent="1">
          <mxGeometry x="230" y="2910" width="1880" height="880" as="geometry" />
        </mxCell>
        <mxCell id="W6FVTwmzzRBTOz6BkEIq-9" value="Operatore" style="shape=umlActor;verticalLabelPosition=bottom;verticalAlign=top;html=1;outlineConnect=0;fontColor=light-dark(#000000,#FF0000);" vertex="1" parent="1">
          <mxGeometry x="340" y="2980" width="30" height="60" as="geometry" />
        </mxCell>
        <mxCell id="W6FVTwmzzRBTOz6BkEIq-10" value="" style="endArrow=none;dashed=1;html=1;rounded=0;fontColor=light-dark(#000000,#FF0000);" edge="1" parent="1" source="W6FVTwmzzRBTOz6BkEIq-12">
          <mxGeometry width="50" height="50" relative="1" as="geometry">
            <mxPoint x="354.72" y="3320" as="sourcePoint" />
            <mxPoint x="355" y="3060" as="targetPoint" />
          </mxGeometry>
        </mxCell>
        <mxCell id="W6FVTwmzzRBTOz6BkEIq-11" value="" style="endArrow=none;dashed=1;html=1;rounded=0;fontColor=light-dark(#000000,#FF0000);" edge="1" parent="1" target="W6FVTwmzzRBTOz6BkEIq-12">
          <mxGeometry width="50" height="50" relative="1" as="geometry">
            <mxPoint x="355" y="3170" as="sourcePoint" />
            <mxPoint x="354.72" y="3070" as="targetPoint" />
          </mxGeometry>
        </mxCell>
        <mxCell id="W6FVTwmzzRBTOz6BkEIq-12" value="" style="html=1;points=[];perimeter=orthogonalPerimeter;outlineConnect=0;targetShapes=umlLifeline;portConstraint=eastwest;newEdgeStyle={&quot;edgeStyle&quot;:&quot;elbowEdgeStyle&quot;,&quot;elbow&quot;:&quot;vertical&quot;,&quot;curved&quot;:0,&quot;rounded&quot;:0};fontColor=light-dark(#000000,#FF0000);" vertex="1" parent="1">
          <mxGeometry x="350" y="3090" width="10" height="50" as="geometry" />
        </mxCell>
        <mxCell id="W6FVTwmzzRBTOz6BkEIq-13" value="azioneAvvioProcesso()" style="html=1;verticalAlign=bottom;endArrow=block;edgeStyle=elbowEdgeStyle;elbow=vertical;curved=0;rounded=0;fontColor=light-dark(#000000,#FF0000);" edge="1" parent="1" target="W6FVTwmzzRBTOz6BkEIq-2">
          <mxGeometry relative="1" as="geometry">
            <mxPoint x="360" y="3110" as="sourcePoint" />
            <Array as="points">
              <mxPoint x="445" y="3110" />
            </Array>
            <mxPoint x="530" y="3110" as="targetPoint" />
            <mxPoint as="offset" />
          </mxGeometry>
        </mxCell>
        <mxCell id="W6FVTwmzzRBTOz6BkEIq-14" value="checkStatoStazione()" style="html=1;verticalAlign=bottom;endArrow=block;edgeStyle=elbowEdgeStyle;elbow=vertical;curved=0;rounded=0;fontColor=light-dark(#000000,#FF0000);" edge="1" parent="1">
          <mxGeometry relative="1" as="geometry">
            <mxPoint x="645" y="3200" as="sourcePoint" />
            <Array as="points">
              <mxPoint x="925" y="3200" />
              <mxPoint x="1010" y="3234.58" />
              <mxPoint x="930" y="3144.58" />
            </Array>
            <mxPoint x="935" y="3200" as="targetPoint" />
            <mxPoint as="offset" />
          </mxGeometry>
        </mxCell>
        <mxCell id="W6FVTwmzzRBTOz6BkEIq-15" value="&lt;font style=&quot;&quot;&gt;s1 : StazioneLavaggio&lt;/font&gt;" style="shape=umlLifeline;perimeter=lifelinePerimeter;whiteSpace=wrap;html=1;container=0;dropTarget=0;collapsible=0;recursiveResize=0;outlineConnect=0;portConstraint=eastwest;newEdgeStyle={&quot;edgeStyle&quot;:&quot;elbowEdgeStyle&quot;,&quot;elbow&quot;:&quot;vertical&quot;,&quot;curved&quot;:0,&quot;rounded&quot;:0};fontColor=light-dark(#000000,#FF0000);" vertex="1" parent="1">
          <mxGeometry x="1140" y="3020" width="100" height="510" as="geometry" />
        </mxCell>
        <mxCell id="W6FVTwmzzRBTOz6BkEIq-16" value="" style="html=1;points=[];perimeter=orthogonalPerimeter;outlineConnect=0;targetShapes=umlLifeline;portConstraint=eastwest;newEdgeStyle={&quot;edgeStyle&quot;:&quot;elbowEdgeStyle&quot;,&quot;elbow&quot;:&quot;vertical&quot;,&quot;curved&quot;:0,&quot;rounded&quot;:0};fontColor=light-dark(#000000,#FF0000);" vertex="1" parent="W6FVTwmzzRBTOz6BkEIq-15">
          <mxGeometry x="45" y="210" width="10" height="290" as="geometry" />
        </mxCell>
        <mxCell id="W6FVTwmzzRBTOz6BkEIq-17" value="CONTROLLER&lt;br&gt;DI CASO D&#39;USO" style="text;html=1;align=center;verticalAlign=middle;resizable=0;points=[];autosize=1;strokeColor=none;fillColor=none;fontColor=light-dark(#000000,#FF0000);" vertex="1" parent="1">
          <mxGeometry x="885" y="2973" width="110" height="40" as="geometry" />
        </mxCell>
        <mxCell id="W6FVTwmzzRBTOz6BkEIq-18" value="setStato(statoStazione.WORKING)" style="html=1;verticalAlign=bottom;endArrow=block;edgeStyle=elbowEdgeStyle;elbow=vertical;curved=0;rounded=0;fontColor=light-dark(#000000,#FF0000);" edge="1" parent="1" source="W6FVTwmzzRBTOz6BkEIq-4" target="W6FVTwmzzRBTOz6BkEIq-16">
          <mxGeometry relative="1" as="geometry">
            <mxPoint x="970" y="3280" as="sourcePoint" />
            <Array as="points">
              <mxPoint x="1100" y="3250" />
              <mxPoint x="1140" y="3280" />
              <mxPoint x="1293" y="3314.41" />
              <mxPoint x="1213" y="3224.41" />
            </Array>
            <mxPoint x="1133" y="3279.83" as="targetPoint" />
            <mxPoint as="offset" />
          </mxGeometry>
        </mxCell>
        <mxCell id="W6FVTwmzzRBTOz6BkEIq-19" value="possibile inserimento di un login&lt;br&gt;per l&#39;operatore così che veda&lt;br&gt;solo la stazione a cui è stato&lt;br&gt;assegnato" style="text;html=1;align=center;verticalAlign=middle;resizable=0;points=[];autosize=1;strokeColor=none;fillColor=none;fontColor=light-dark(#000000,#FF0000);" vertex="1" parent="1">
          <mxGeometry x="400" y="3130" width="190" height="70" as="geometry" />
        </mxCell>
        <mxCell id="W6FVTwmzzRBTOz6BkEIq-20" value="setStato(statoStazione.READY)" style="html=1;verticalAlign=bottom;endArrow=block;edgeStyle=elbowEdgeStyle;elbow=vertical;curved=0;rounded=0;fontColor=light-dark(#000000,#FF0000);" edge="1" parent="1" source="W6FVTwmzzRBTOz6BkEIq-4" target="W6FVTwmzzRBTOz6BkEIq-16">
          <mxGeometry relative="1" as="geometry">
            <mxPoint x="950" y="3450" as="sourcePoint" />
            <Array as="points">
              <mxPoint x="1130" y="3450" />
              <mxPoint x="1115" y="3490" />
              <mxPoint x="1155" y="3520" />
              <mxPoint x="1308" y="3554.41" />
              <mxPoint x="1228" y="3464.41" />
            </Array>
            <mxPoint x="1170" y="3450" as="targetPoint" />
            <mxPoint as="offset" />
          </mxGeometry>
        </mxCell>
        <mxCell id="W6FVTwmzzRBTOz6BkEIq-21" value="s2 : StazioneAsciugatura" style="shape=umlLifeline;perimeter=lifelinePerimeter;whiteSpace=wrap;html=1;container=0;dropTarget=0;collapsible=0;recursiveResize=0;outlineConnect=0;portConstraint=eastwest;newEdgeStyle={&quot;edgeStyle&quot;:&quot;elbowEdgeStyle&quot;,&quot;elbow&quot;:&quot;vertical&quot;,&quot;curved&quot;:0,&quot;rounded&quot;:0};fontColor=light-dark(#000000,#FF0000);" vertex="1" parent="1">
          <mxGeometry x="1330" y="3020" width="100" height="510" as="geometry" />
        </mxCell>
        <mxCell id="W6FVTwmzzRBTOz6BkEIq-22" value="capo = removeCapo()" style="html=1;verticalAlign=bottom;endArrow=block;edgeStyle=elbowEdgeStyle;elbow=vertical;curved=0;rounded=0;fontColor=light-dark(#000000,#FF0000);" edge="1" parent="1">
          <mxGeometry relative="1" as="geometry">
            <mxPoint x="945" y="3340" as="sourcePoint" />
            <Array as="points">
              <mxPoint x="1140" y="3340" />
              <mxPoint x="1120" y="3320" />
              <mxPoint x="1105" y="3340" />
              <mxPoint x="1145" y="3370" />
              <mxPoint x="1298" y="3404.41" />
              <mxPoint x="1218" y="3314.41" />
            </Array>
            <mxPoint x="1185" y="3340" as="targetPoint" />
            <mxPoint as="offset" />
          </mxGeometry>
        </mxCell>
        <mxCell id="W6FVTwmzzRBTOz6BkEIq-23" value="addCapo(capo)" style="html=1;verticalAlign=bottom;endArrow=block;edgeStyle=elbowEdgeStyle;elbow=vertical;curved=0;rounded=0;fontColor=light-dark(#000000,#FF0000);" edge="1" parent="1">
          <mxGeometry relative="1" as="geometry">
            <mxPoint x="945" y="3370" as="sourcePoint" />
            <Array as="points">
              <mxPoint x="1270" y="3370" />
              <mxPoint x="1125" y="3350" />
              <mxPoint x="1110" y="3370" />
              <mxPoint x="1150" y="3400" />
              <mxPoint x="1303" y="3434.41" />
              <mxPoint x="1223" y="3344.41" />
            </Array>
            <mxPoint x="1375" y="3370" as="targetPoint" />
            <mxPoint as="offset" />
          </mxGeometry>
        </mxCell>
        <mxCell id="W6FVTwmzzRBTOz6BkEIq-24" value="loop" style="shape=umlFrame;whiteSpace=wrap;html=1;pointerEvents=0;recursiveResize=0;container=0;collapsible=0;width=60;height=20;fontColor=light-dark(#000000,#FF0000);" vertex="1" parent="1">
          <mxGeometry x="860" y="3320" width="540" height="80" as="geometry" />
        </mxCell>
        <mxCell id="W6FVTwmzzRBTOz6BkEIq-25" value="return segnalazione fine lavorazione" style="html=1;verticalAlign=bottom;endArrow=open;dashed=1;endSize=8;edgeStyle=elbowEdgeStyle;elbow=vertical;curved=0;rounded=0;fontColor=light-dark(#000000,#FF0000);" edge="1" parent="1" source="W6FVTwmzzRBTOz6BkEIq-4" target="W6FVTwmzzRBTOz6BkEIq-2">
          <mxGeometry x="0.0027" relative="1" as="geometry">
            <mxPoint x="690" y="3510" as="targetPoint" />
            <Array as="points">
              <mxPoint x="815" y="3510" />
              <mxPoint x="485" y="3490" />
              <mxPoint x="607" y="3410" />
            </Array>
            <mxPoint x="930" y="3510" as="sourcePoint" />
            <mxPoint as="offset" />
          </mxGeometry>
        </mxCell>
        <mxCell id="W6FVTwmzzRBTOz6BkEIq-26" value="[numCapi &amp;lt; n]" style="text;html=1;align=center;verticalAlign=middle;resizable=0;points=[];autosize=1;strokeColor=none;fillColor=none;fontColor=light-dark(#000000,#FF0000);fontSize=10;" vertex="1" parent="1">
          <mxGeometry x="850" y="3340" width="90" height="30" as="geometry" />
        </mxCell>
        <mxCell id="W6FVTwmzzRBTOz6BkEIq-27" value="" style="html=1;points=[];perimeter=orthogonalPerimeter;outlineConnect=0;targetShapes=umlLifeline;portConstraint=eastwest;newEdgeStyle={&quot;edgeStyle&quot;:&quot;elbowEdgeStyle&quot;,&quot;elbow&quot;:&quot;vertical&quot;,&quot;curved&quot;:0,&quot;rounded&quot;:0};fontColor=light-dark(#000000,#FF0000);" vertex="1" parent="1">
          <mxGeometry x="1375" y="3345" width="10" height="165" as="geometry" />
        </mxCell>
        <mxCell id="W6FVTwmzzRBTOz6BkEIq-35" value="DB" style="shape=umlLifeline;perimeter=lifelinePerimeter;whiteSpace=wrap;html=1;container=0;dropTarget=0;collapsible=0;recursiveResize=0;outlineConnect=0;portConstraint=eastwest;newEdgeStyle={&quot;edgeStyle&quot;:&quot;elbowEdgeStyle&quot;,&quot;elbow&quot;:&quot;vertical&quot;,&quot;curved&quot;:0,&quot;rounded&quot;:0};fontColor=light-dark(#000000,#FF0000);" vertex="1" parent="1">
          <mxGeometry x="1970" y="3020" width="100" height="470" as="geometry" />
        </mxCell>
        <mxCell id="W6FVTwmzzRBTOz6BkEIq-36" value="" style="html=1;points=[];perimeter=orthogonalPerimeter;outlineConnect=0;targetShapes=umlLifeline;portConstraint=eastwest;newEdgeStyle={&quot;edgeStyle&quot;:&quot;elbowEdgeStyle&quot;,&quot;elbow&quot;:&quot;vertical&quot;,&quot;curved&quot;:0,&quot;rounded&quot;:0};fontColor=light-dark(#000000,#FF0000);" vertex="1" parent="W6FVTwmzzRBTOz6BkEIq-35">
          <mxGeometry x="45" y="420" width="10" height="30" as="geometry" />
        </mxCell>
        <mxCell id="W6FVTwmzzRBTOz6BkEIq-37" value="s3 : StazioneStiratura" style="shape=umlLifeline;perimeter=lifelinePerimeter;whiteSpace=wrap;html=1;container=0;dropTarget=0;collapsible=0;recursiveResize=0;outlineConnect=0;portConstraint=eastwest;newEdgeStyle={&quot;edgeStyle&quot;:&quot;elbowEdgeStyle&quot;,&quot;elbow&quot;:&quot;vertical&quot;,&quot;curved&quot;:0,&quot;rounded&quot;:0};fontColor=light-dark(#000000,#FF0000);" vertex="1" parent="1">
          <mxGeometry x="1560" y="3020" width="100" height="530" as="geometry" />
        </mxCell>
        <mxCell id="W6FVTwmzzRBTOz6BkEIq-38" value="" style="html=1;points=[];perimeter=orthogonalPerimeter;outlineConnect=0;targetShapes=umlLifeline;portConstraint=eastwest;newEdgeStyle={&quot;edgeStyle&quot;:&quot;elbowEdgeStyle&quot;,&quot;elbow&quot;:&quot;vertical&quot;,&quot;curved&quot;:0,&quot;rounded&quot;:0};fontColor=light-dark(#000000,#FF0000);" vertex="1" parent="W6FVTwmzzRBTOz6BkEIq-37">
          <mxGeometry x="45" y="380" width="10" height="130" as="geometry" />
        </mxCell>
        <mxCell id="W6FVTwmzzRBTOz6BkEIq-39" value="CapoDAO" style="shape=umlLifeline;perimeter=lifelinePerimeter;whiteSpace=wrap;html=1;container=0;dropTarget=0;collapsible=0;recursiveResize=0;outlineConnect=0;portConstraint=eastwest;newEdgeStyle={&quot;edgeStyle&quot;:&quot;elbowEdgeStyle&quot;,&quot;elbow&quot;:&quot;vertical&quot;,&quot;curved&quot;:0,&quot;rounded&quot;:0};fontColor=light-dark(#000000,#FF0000);" vertex="1" parent="1">
          <mxGeometry x="1780" y="3020" width="100" height="480" as="geometry" />
        </mxCell>
        <mxCell id="W6FVTwmzzRBTOz6BkEIq-40" value="" style="html=1;points=[];perimeter=orthogonalPerimeter;outlineConnect=0;targetShapes=umlLifeline;portConstraint=eastwest;newEdgeStyle={&quot;edgeStyle&quot;:&quot;elbowEdgeStyle&quot;,&quot;elbow&quot;:&quot;vertical&quot;,&quot;curved&quot;:0,&quot;rounded&quot;:0};fontColor=light-dark(#000000,#FF0000);" vertex="1" parent="W6FVTwmzzRBTOz6BkEIq-39">
          <mxGeometry x="45" y="400" width="10" height="50" as="geometry" />
        </mxCell>
        <mxCell id="W6FVTwmzzRBTOz6BkEIq-41" value="executeQuery()" style="html=1;verticalAlign=bottom;endArrow=block;edgeStyle=elbowEdgeStyle;elbow=vertical;curved=0;rounded=0;fontColor=light-dark(#000000,#FF0000);" edge="1" parent="1" source="W6FVTwmzzRBTOz6BkEIq-40" target="W6FVTwmzzRBTOz6BkEIq-36">
          <mxGeometry relative="1" as="geometry">
            <mxPoint x="1955" y="3460" as="sourcePoint" />
            <Array as="points">
              <mxPoint x="1960" y="3460" />
              <mxPoint x="2060" y="3470" />
              <mxPoint x="2290" y="3504.58" />
              <mxPoint x="2210" y="3414.58" />
            </Array>
            <mxPoint x="2000" y="3460" as="targetPoint" />
            <mxPoint as="offset" />
          </mxGeometry>
        </mxCell>
        <mxCell id="W6FVTwmzzRBTOz6BkEIq-42" value="return interfaccia aggiornata" style="html=1;verticalAlign=bottom;endArrow=open;dashed=1;endSize=8;edgeStyle=elbowEdgeStyle;elbow=vertical;curved=0;rounded=0;fontColor=light-dark(#000000,#FFFFFF);" edge="1" parent="1" source="KFQoRSMoKo6lWCKC4XPC-31" target="KFQoRSMoKo6lWCKC4XPC-42">
          <mxGeometry x="0.0027" relative="1" as="geometry">
            <mxPoint x="590" y="890" as="targetPoint" />
            <Array as="points">
              <mxPoint x="730" y="890" />
              <mxPoint x="400" y="870" />
              <mxPoint x="522" y="790" />
            </Array>
            <mxPoint x="830" y="890" as="sourcePoint" />
            <mxPoint as="offset" />
          </mxGeometry>
        </mxCell>
        <mxCell id="W6FVTwmzzRBTOz6BkEIq-43" value="return interfaccia aggiornata" style="html=1;verticalAlign=bottom;endArrow=open;dashed=1;endSize=8;edgeStyle=elbowEdgeStyle;elbow=vertical;curved=0;rounded=0;fontColor=light-dark(#000000,#FFFFFF);" edge="1" parent="1">
          <mxGeometry x="0.0027" relative="1" as="geometry">
            <mxPoint x="570" y="1650" as="targetPoint" />
            <Array as="points">
              <mxPoint x="730" y="1650" />
              <mxPoint x="400" y="1630" />
              <mxPoint x="522" y="1550" />
            </Array>
            <mxPoint x="845" y="1650" as="sourcePoint" />
            <mxPoint as="offset" />
          </mxGeometry>
        </mxCell>
        <mxCell id="W6FVTwmzzRBTOz6BkEIq-44" value="return interfaccia aggiornata" style="html=1;verticalAlign=bottom;endArrow=open;dashed=1;endSize=8;edgeStyle=elbowEdgeStyle;elbow=vertical;curved=0;rounded=0;fontColor=light-dark(#000000,#FFFFFF);" edge="1" parent="1">
          <mxGeometry x="0.0027" relative="1" as="geometry">
            <mxPoint x="570" y="2500" as="targetPoint" />
            <Array as="points">
              <mxPoint x="730" y="2500" />
              <mxPoint x="400" y="2480" />
              <mxPoint x="522" y="2400" />
            </Array>
            <mxPoint x="845" y="2500" as="sourcePoint" />
            <mxPoint as="offset" />
          </mxGeometry>
        </mxCell>
        <mxCell id="W6FVTwmzzRBTOz6BkEIq-45" value="" style="endArrow=none;html=1;rounded=0;" edge="1" parent="1">
          <mxGeometry width="50" height="50" relative="1" as="geometry">
            <mxPoint x="2480" y="4229.19970703125" as="sourcePoint" />
            <mxPoint x="2480" y="90" as="targetPoint" />
          </mxGeometry>
        </mxCell>
      </root>
    </mxGraphModel>
  </diagram>
</mxfile>
